M48
; DRILL file {KiCad (6.99.0-1115-g98f4b1d16c)} date 2022 March 31, Thursday 00:19:25
; FORMAT={-:-/ absolute / metric / decimal}
; #@! TF.CreationDate,2022-03-31T00:19:25+02:00
; #@! TF.GenerationSoftware,Kicad,Pcbnew,(6.99.0-1115-g98f4b1d16c)
; #@! TF.FileFunction,Plated,1,4,PTH
FMAT,2
METRIC
; #@! TA.AperFunction,Plated,PTH,ViaDrill
T1C0.200
; #@! TA.AperFunction,Plated,PTH,ComponentDrill
T2C0.350
; #@! TA.AperFunction,Plated,PTH,ComponentDrill
T3C0.950
; #@! TA.AperFunction,Plated,PTH,ComponentDrill
T4C1.000
; #@! TA.AperFunction,Plated,PTH,ComponentDrill
T5C1.020
; #@! TA.AperFunction,Plated,PTH,ComponentDrill
T6C1.330
; #@! TA.AperFunction,Plated,PTH,ComponentDrill
T7C1.500
; #@! TA.AperFunction,Plated,PTH,ComponentDrill
T8C2.200
; #@! TA.AperFunction,Plated,PTH,ComponentDrill
T9C2.300
; #@! TA.AperFunction,Plated,PTH,ComponentDrill
T10C3.200
%
G90
G05
T1
X39.243Y-44.069
X40.64Y-47.711
X40.64Y-48.811
X40.64Y-49.911
X40.64Y-51.011
X40.64Y-52.111
X40.64Y-53.211
X40.894Y-115.57
X40.894Y-126.873
X42.799Y-117.729
X42.799Y-129.032
X43.307Y-65.532
X44.069Y-65.532
X44.577Y-129.032
X44.958Y-64.009
X44.958Y-67.009
X44.958Y-68.509
X44.958Y-70.009
X44.958Y-71.509
X45.593Y-135.382
X45.72Y-112.776
X45.72Y-123.444
X46.736Y-57.658
X46.863Y-130.683
X48.311Y-40.151
X49.111Y-40.151
X49.53Y-62.738
X49.53Y-86.36
X49.784Y-74.168
X49.784Y-109.728
X49.911Y-40.151
X50.711Y-40.151
X51.054Y-50.419
X51.816Y-59.944
X51.816Y-91.44
X52.832Y-51.054
X52.832Y-55.499
X52.832Y-78.232
X52.832Y-118.872
X53.848Y-40.132
X53.975Y-131.826
X53.975Y-134.874
X54.229Y-66.158
X54.229Y-66.862
X54.229Y-67.758
X54.229Y-68.462
X54.254Y-72.288
X54.864Y-128.016
X55.372Y-135.636
X58.674Y-116.205
X58.674Y-119.761
X58.674Y-123.317
X59.436Y-109.22
X60.071Y-127.508
X60.325Y-134.874
X60.579Y-120.65
X61.671Y-109.22
X62.484Y-116.84
X62.738Y-131.826
X62.738Y-133.096
X62.744Y-128.727
X62.744Y-131.064
X62.992Y-72.644
X62.992Y-81.28
X64.389Y-123.19
X64.389Y-126.365
X65.786Y-131.064
X65.786Y-131.784
X65.786Y-132.503
X65.786Y-133.232
X66.167Y-128.524
X66.294Y-135.636
X66.548Y-114.554
X67.31Y-40.386
X67.31Y-50.292
X67.31Y-59.182
X67.31Y-72.644
X67.31Y-81.28
X68.174Y-127.152
X68.707Y-119.634
X68.707Y-123.19
X69.596Y-115.697
X69.723Y-119.634
X70.358Y-133.604
X70.736Y-118.567
X71.374Y-78.74
X71.374Y-85.598
X72.136Y-135.636
X72.644Y-117.856
X74.754Y-120.964
X74.754Y-121.764
X74.754Y-122.564
X74.754Y-123.364
X75.692Y-107.188
X75.819Y-100.711
X76.708Y-100.711
X77.216Y-97.028
X77.47Y-101.6
X77.597Y-100.711
X78.803Y-107.378
X78.994Y-121.158
X79.819Y-107.378
X80.596Y-111.75
X81.178Y-88.544
X81.358Y-115.052
X81.358Y-117.856
X82.042Y-122.174
X82.248Y-116.449
X82.248Y-117.719
X82.296Y-84.582
X82.804Y-98.552
X84.328Y-72.617
X84.455Y-60.96
X85.547Y-113.944
X85.598Y-109.982
X85.852Y-75.411
X85.852Y-78.023
X85.852Y-78.742
X85.852Y-79.462
X87.376Y-105.41
X88.011Y-81.788
X88.392Y-68.58
X88.646Y-72.644
X88.9Y-65.098
X89.916Y-51.308
X89.916Y-56.388
X89.916Y-58.928
X91.186Y-86.36
X91.821Y-68.834
X91.821Y-76.046
X91.821Y-80.873
X92.456Y-92.456
X92.456Y-105.41
X92.71Y-83.158
X93.091Y-126.746
X93.091Y-128.016
X94.488Y-53.848
X94.488Y-65.124
X94.488Y-122.834
X94.615Y-75.919
X95.0Y-66.394
X95.235Y-80.718
X95.504Y-64.008
X95.754Y-66.394
X95.928Y-80.91
X96.647Y-76.046
X96.647Y-80.873
X96.774Y-127.381
X96.774Y-129.286
X96.774Y-130.556
X96.774Y-135.636
X97.536Y-50.8
X97.536Y-92.456
X98.298Y-120.142
X98.806Y-88.9
X98.933Y-77.862
X99.568Y-134.112
X100.076Y-50.8
X100.711Y-55.372
X101.092Y-54.356
X101.092Y-57.912
X101.092Y-65.024
X101.219Y-123.444
X101.346Y-77.825
X101.346Y-80.721
X101.346Y-83.312
X101.346Y-85.979
X101.397Y-73.0
X101.6Y-69.167
X101.854Y-112.522
X101.854Y-115.062
X101.854Y-117.602
X102.108Y-54.356
X102.108Y-56.896
X102.235Y-110.744
X102.616Y-118.872
X103.124Y-57.912
X103.505Y-55.372
X103.505Y-113.792
X103.505Y-116.332
X103.632Y-53.34
X104.14Y-80.264
X104.14Y-82.804
X104.648Y-41.656
X105.41Y-59.309
X106.07Y-125.425
X106.324Y-110.744
X107.188Y-93.472
X107.188Y-118.872
X107.696Y-54.356
X107.696Y-65.532
X107.696Y-71.12
X109.22Y-105.41
X109.322Y-89.56
X109.347Y-88.336
X109.855Y-77.217
X110.236Y-119.888
X110.236Y-126.746
X110.236Y-127.546
X110.236Y-128.346
X110.236Y-129.146
X111.76Y-54.356
X112.166Y-96.063
X112.166Y-101.041
X112.776Y-67.31
X113.03Y-58.166
X113.157Y-84.837
X113.157Y-125.222
X113.284Y-90.297
X114.3Y-94.996
X114.3Y-104.648
X114.935Y-79.756
X114.935Y-82.296
X114.935Y-84.836
X116.078Y-102.94
X116.078Y-103.74
X116.078Y-104.54
X116.078Y-105.34
X116.078Y-108.528
X116.078Y-109.328
X116.078Y-110.128
X116.078Y-110.928
X116.332Y-59.69
X116.332Y-63.246
X116.332Y-66.802
X118.11Y-76.327
X119.38Y-41.656
X120.015Y-54.356
X120.142Y-76.328
X120.142Y-79.884
X120.142Y-83.44
X120.142Y-86.996
X120.65Y-68.58
X120.904Y-108.528
X120.904Y-109.328
X120.904Y-110.128
X120.904Y-110.928
X120.955Y-101.905
X123.139Y-67.97
X124.968Y-99.568
X124.968Y-102.94
X124.968Y-103.74
X124.968Y-104.54
X124.968Y-105.34
X125.095Y-109.601
X126.238Y-96.52
X126.238Y-106.934
X126.238Y-117.856
X126.238Y-128.524
X126.492Y-121.92
X126.492Y-132.588
X127.0Y-63.5
X127.508Y-55.372
X127.508Y-76.708
X127.508Y-87.376
X129.032Y-91.948
X129.032Y-102.616
X129.032Y-113.284
X129.032Y-123.444
X129.54Y-64.586
X129.54Y-65.386
X129.54Y-66.186
X129.54Y-66.986
X131.1Y-95.758
X131.1Y-100.838
X131.1Y-117.094
X131.1Y-122.174
X133.35Y-50.292
X133.35Y-60.96
X133.35Y-71.628
X133.35Y-114.3
X133.35Y-124.968
X133.858Y-52.832
X133.858Y-58.42
X133.858Y-74.422
X133.858Y-79.502
X135.6Y-62.092
X136.318Y-63.034
X136.318Y-63.754
X136.318Y-69.133
X136.318Y-69.85
T2
X92.959Y-77.187
X92.959Y-78.462
X92.959Y-79.737
X94.234Y-77.187
X94.234Y-78.462
X94.234Y-79.737
X95.509Y-77.187
X95.509Y-78.462
X95.509Y-79.737
T3
X103.144Y-47.713
X103.144Y-49.713
X105.644Y-47.713
X105.644Y-49.713
T4
X41.275Y-87.495
X41.275Y-89.785
X41.275Y-92.075
X41.275Y-94.365
X41.275Y-96.655
X43.255Y-88.64
X43.255Y-90.93
X43.255Y-93.22
X43.255Y-95.51
X43.255Y-97.8
X45.235Y-87.495
X45.235Y-89.785
X45.235Y-92.075
X45.235Y-94.365
X45.235Y-96.655
X50.292Y-97.484
X50.292Y-100.024
X52.832Y-97.484
X52.832Y-100.024
X55.372Y-97.484
X55.372Y-100.024
X57.912Y-97.484
X57.912Y-100.024
X60.452Y-97.484
X60.452Y-100.024
X62.992Y-97.484
X62.992Y-100.024
X65.532Y-97.484
X65.532Y-100.024
X68.072Y-97.484
X68.072Y-100.024
X70.612Y-97.484
X70.612Y-100.024
X73.152Y-97.484
X73.152Y-100.024
X75.145Y-126.482
X75.145Y-134.112
X77.685Y-126.482
X77.685Y-134.112
X80.225Y-126.482
X80.225Y-134.112
X82.766Y-126.482
X82.766Y-134.112
X88.565Y-118.745
X88.565Y-121.285
X88.565Y-123.825
X88.565Y-126.365
X89.87Y-97.195
X89.87Y-99.695
X89.87Y-102.195
X93.08Y-97.195
X93.08Y-102.195
X107.58Y-97.195
X107.58Y-99.695
X107.58Y-102.195
X115.463Y-45.212
X117.856Y-98.044
X117.856Y-115.316
X117.856Y-117.856
X117.856Y-120.396
X117.856Y-122.936
X117.856Y-125.476
X117.856Y-128.016
X117.856Y-130.556
X117.856Y-133.096
X117.871Y-88.901
X117.871Y-92.711
X120.396Y-98.044
X120.396Y-115.316
X120.396Y-117.856
X120.396Y-120.396
X120.396Y-122.936
X120.396Y-125.476
X120.396Y-128.016
X120.396Y-130.556
X120.396Y-133.096
X120.411Y-88.901
X120.411Y-92.711
X122.936Y-98.044
X122.936Y-115.316
X122.936Y-117.856
X122.936Y-120.396
X122.936Y-122.936
X122.936Y-125.476
X122.936Y-128.016
X122.936Y-130.556
X122.936Y-133.096
X122.951Y-88.901
X122.951Y-92.711
X123.063Y-45.212
X127.508Y-41.656
X127.508Y-44.196
T5
X58.42Y-40.64
X58.42Y-43.18
X58.42Y-45.72
X58.42Y-48.26
X58.42Y-50.8
X58.42Y-53.34
X58.42Y-55.88
X58.42Y-58.42
X58.42Y-60.96
X58.42Y-63.5
X58.42Y-66.04
X58.42Y-68.58
X58.42Y-71.12
X58.42Y-73.66
X58.42Y-76.2
X58.42Y-78.74
X58.42Y-81.28
X58.42Y-83.82
X58.42Y-86.36
X58.42Y-88.9
X64.77Y-88.67
X67.31Y-88.67
X69.85Y-88.67
X76.2Y-40.64
X76.2Y-43.18
X76.2Y-45.72
X76.2Y-48.26
X76.2Y-50.8
X76.2Y-53.34
X76.2Y-55.88
X76.2Y-58.42
X76.2Y-60.96
X76.2Y-63.5
X76.2Y-66.04
X76.2Y-68.58
X76.2Y-71.12
X76.2Y-73.66
X76.2Y-76.2
X76.2Y-78.74
X76.2Y-81.28
X76.2Y-83.82
X76.2Y-86.36
X76.2Y-88.9
T6
X40.794Y-59.409
X40.794Y-75.109
X45.694Y-60.009
X45.694Y-74.509
T8
X89.065Y-110.805
X89.065Y-134.305
X112.865Y-110.805
X112.865Y-134.305
T9
X98.394Y-44.853
X110.394Y-44.853
T10
X43.185Y-79.84
X43.185Y-104.84
T4
X86.02Y-46.46G85X86.02Y-44.26
G05
X91.92Y-41.96G85X89.72Y-41.96
G05
X92.12Y-48.26G85X89.52Y-48.26
G05
T7
X100.73Y-94.095G85X99.43Y-94.095
G05
X100.73Y-105.295G85X99.43Y-105.295
G05
T0
M30
