G04 #@! TF.GenerationSoftware,KiCad,Pcbnew,(6.99.0-1115-g98f4b1d16c)*
G04 #@! TF.CreationDate,2022-03-30T22:22:08+02:00*
G04 #@! TF.ProjectId,rpi_pico_kit,7270695f-7069-4636-9f5f-6b69742e6b69,1*
G04 #@! TF.SameCoordinates,Original*
G04 #@! TF.FileFunction,Soldermask,Top*
G04 #@! TF.FilePolarity,Negative*
%FSLAX46Y46*%
G04 Gerber Fmt 4.6, Leading zero omitted, Abs format (unit mm)*
G04 Created by KiCad (PCBNEW (6.99.0-1115-g98f4b1d16c)) date 2022-03-30 22:22:08*
%MOMM*%
%LPD*%
G01*
G04 APERTURE LIST*
G04 Aperture macros list*
%AMRoundRect*
0 Rectangle with rounded corners*
0 $1 Rounding radius*
0 $2 $3 $4 $5 $6 $7 $8 $9 X,Y pos of 4 corners*
0 Add a 4 corners polygon primitive as box body*
4,1,4,$2,$3,$4,$5,$6,$7,$8,$9,$2,$3,0*
0 Add four circle primitives for the rounded corners*
1,1,$1+$1,$2,$3*
1,1,$1+$1,$4,$5*
1,1,$1+$1,$6,$7*
1,1,$1+$1,$8,$9*
0 Add four rect primitives between the rounded corners*
20,1,$1+$1,$2,$3,$4,$5,0*
20,1,$1+$1,$4,$5,$6,$7,0*
20,1,$1+$1,$6,$7,$8,$9,0*
20,1,$1+$1,$8,$9,$2,$3,0*%
%AMFreePoly0*
4,1,35,0.535355,0.785355,0.550000,0.750000,0.550000,-0.750000,0.535355,-0.785355,0.500000,-0.800000,0.000000,-0.800000,-0.012286,-0.794911,-0.071157,-0.794911,-0.085244,-0.792886,-0.221795,-0.752791,-0.234740,-0.746879,-0.354462,-0.669938,-0.365217,-0.660618,-0.458414,-0.553063,-0.466109,-0.541091,-0.525228,-0.411637,-0.529237,-0.397982,-0.549491,-0.257116,-0.550000,-0.250000,-0.550000,0.250000,
-0.549491,0.257116,-0.529237,0.397982,-0.525228,0.411637,-0.466109,0.541091,-0.458414,0.553063,-0.365217,0.660618,-0.354462,0.669938,-0.234740,0.746879,-0.221795,0.752791,-0.085244,0.792886,-0.071157,0.794911,-0.012286,0.794911,0.000000,0.800000,0.500000,0.800000,0.535355,0.785355,0.535355,0.785355,$1*%
%AMFreePoly1*
4,1,35,0.012286,0.794911,0.071157,0.794911,0.085244,0.792886,0.221795,0.752791,0.234740,0.746879,0.354462,0.669938,0.365217,0.660618,0.458414,0.553063,0.466109,0.541091,0.525228,0.411637,0.529237,0.397982,0.549491,0.257116,0.550000,0.250000,0.550000,-0.250000,0.549491,-0.257116,0.529237,-0.397982,0.525228,-0.411637,0.466109,-0.541091,0.458414,-0.553063,0.365217,-0.660618,
0.354462,-0.669938,0.234740,-0.746879,0.221795,-0.752791,0.085244,-0.792886,0.071157,-0.794911,0.012286,-0.794911,0.000000,-0.800000,-0.500000,-0.800000,-0.535355,-0.785355,-0.550000,-0.750000,-0.550000,0.750000,-0.535355,0.785355,-0.500000,0.800000,0.000000,0.800000,0.012286,0.794911,0.012286,0.794911,$1*%
G04 Aperture macros list end*
%ADD10RoundRect,0.050000X-0.850000X-0.850000X0.850000X-0.850000X0.850000X0.850000X-0.850000X0.850000X0*%
%ADD11O,1.800000X1.800000*%
%ADD12RoundRect,0.287500X-0.250000X-0.237500X0.250000X-0.237500X0.250000X0.237500X-0.250000X0.237500X0*%
%ADD13RoundRect,0.200000X-0.825000X-0.150000X0.825000X-0.150000X0.825000X0.150000X-0.825000X0.150000X0*%
%ADD14RoundRect,0.050000X-0.700000X0.800000X-0.700000X-0.800000X0.700000X-0.800000X0.700000X0.800000X0*%
%ADD15RoundRect,0.050000X1.150000X-1.250000X1.150000X1.250000X-1.150000X1.250000X-1.150000X-1.250000X0*%
%ADD16RoundRect,0.287500X0.300000X0.237500X-0.300000X0.237500X-0.300000X-0.237500X0.300000X-0.237500X0*%
%ADD17C,1.100000*%
%ADD18C,2.800000*%
%ADD19RoundRect,0.050000X1.000000X1.000000X-1.000000X1.000000X-1.000000X-1.000000X1.000000X-1.000000X0*%
%ADD20C,2.100000*%
%ADD21RoundRect,0.050000X1.600000X1.000000X-1.600000X1.000000X-1.600000X-1.000000X1.600000X-1.000000X0*%
%ADD22RoundRect,0.287500X0.250000X0.237500X-0.250000X0.237500X-0.250000X-0.237500X0.250000X-0.237500X0*%
%ADD23RoundRect,0.050000X0.400000X0.250000X-0.400000X0.250000X-0.400000X-0.250000X0.400000X-0.250000X0*%
%ADD24RoundRect,0.050000X0.400000X0.200000X-0.400000X0.200000X-0.400000X-0.200000X0.400000X-0.200000X0*%
%ADD25RoundRect,0.300000X-0.475000X0.337500X-0.475000X-0.337500X0.475000X-0.337500X0.475000X0.337500X0*%
%ADD26RoundRect,0.050000X0.650000X0.850000X-0.650000X0.850000X-0.650000X-0.850000X0.650000X-0.850000X0*%
%ADD27RoundRect,0.300001X0.462499X0.624999X-0.462499X0.624999X-0.462499X-0.624999X0.462499X-0.624999X0*%
%ADD28RoundRect,0.287500X-0.237500X0.250000X-0.237500X-0.250000X0.237500X-0.250000X0.237500X0.250000X0*%
%ADD29RoundRect,0.050000X0.250000X-0.400000X0.250000X0.400000X-0.250000X0.400000X-0.250000X-0.400000X0*%
%ADD30RoundRect,0.050000X0.200000X-0.400000X0.200000X0.400000X-0.200000X0.400000X-0.200000X-0.400000X0*%
%ADD31RoundRect,0.300001X-0.462499X-0.624999X0.462499X-0.624999X0.462499X0.624999X-0.462499X0.624999X0*%
%ADD32RoundRect,0.287500X-0.237500X0.300000X-0.237500X-0.300000X0.237500X-0.300000X0.237500X0.300000X0*%
%ADD33RoundRect,0.287500X0.237500X-0.250000X0.237500X0.250000X-0.237500X0.250000X-0.237500X-0.250000X0*%
%ADD34RoundRect,0.300000X-0.337500X-0.475000X0.337500X-0.475000X0.337500X0.475000X-0.337500X0.475000X0*%
%ADD35RoundRect,0.287500X-0.300000X-0.237500X0.300000X-0.237500X0.300000X0.237500X-0.300000X0.237500X0*%
%ADD36C,1.800000*%
%ADD37RoundRect,0.050000X1.100000X-1.400000X1.100000X1.400000X-1.100000X1.400000X-1.100000X-1.400000X0*%
%ADD38RoundRect,0.050000X1.400000X-1.400000X1.400000X1.400000X-1.400000X1.400000X-1.400000X-1.400000X0*%
%ADD39RoundRect,0.300000X0.450000X-0.325000X0.450000X0.325000X-0.450000X0.325000X-0.450000X-0.325000X0*%
%ADD40C,4.100000*%
%ADD41RoundRect,0.050000X-0.800000X0.800000X-0.800000X-0.800000X0.800000X-0.800000X0.800000X0.800000X0*%
%ADD42C,1.700000*%
%ADD43RoundRect,0.200000X-0.587500X-0.150000X0.587500X-0.150000X0.587500X0.150000X-0.587500X0.150000X0*%
%ADD44RoundRect,0.050000X0.850000X0.850000X-0.850000X0.850000X-0.850000X-0.850000X0.850000X-0.850000X0*%
%ADD45RoundRect,0.300000X0.475000X-0.337500X0.475000X0.337500X-0.475000X0.337500X-0.475000X-0.337500X0*%
%ADD46RoundRect,0.300000X0.337500X0.475000X-0.337500X0.475000X-0.337500X-0.475000X0.337500X-0.475000X0*%
%ADD47RoundRect,0.175000X0.587500X0.125000X-0.587500X0.125000X-0.587500X-0.125000X0.587500X-0.125000X0*%
%ADD48RoundRect,0.050000X-0.400000X-0.250000X0.400000X-0.250000X0.400000X0.250000X-0.400000X0.250000X0*%
%ADD49RoundRect,0.050000X-0.400000X-0.200000X0.400000X-0.200000X0.400000X0.200000X-0.400000X0.200000X0*%
%ADD50RoundRect,0.050000X-0.900000X-0.700000X0.900000X-0.700000X0.900000X0.700000X-0.900000X0.700000X0*%
%ADD51RoundRect,0.300000X-0.325000X-0.450000X0.325000X-0.450000X0.325000X0.450000X-0.325000X0.450000X0*%
%ADD52RoundRect,0.050000X0.850000X-0.850000X0.850000X0.850000X-0.850000X0.850000X-0.850000X-0.850000X0*%
%ADD53RoundRect,0.050000X-1.000000X-0.750000X1.000000X-0.750000X1.000000X0.750000X-1.000000X0.750000X0*%
%ADD54RoundRect,0.050000X-1.000000X-1.900000X1.000000X-1.900000X1.000000X1.900000X-1.000000X1.900000X0*%
%ADD55RoundRect,0.050000X-0.850000X0.650000X-0.850000X-0.650000X0.850000X-0.650000X0.850000X0.650000X0*%
%ADD56C,1.500000*%
%ADD57RoundRect,0.200000X-0.875000X-0.150000X0.875000X-0.150000X0.875000X0.150000X-0.875000X0.150000X0*%
%ADD58RoundRect,0.050000X2.300000X1.000000X-2.300000X1.000000X-2.300000X-1.000000X2.300000X-1.000000X0*%
%ADD59O,4.300000X2.100000*%
%ADD60O,2.100000X4.300000*%
%ADD61RoundRect,0.287500X0.237500X-0.300000X0.237500X0.300000X-0.237500X0.300000X-0.237500X-0.300000X0*%
%ADD62FreePoly0,180.000000*%
%ADD63FreePoly1,180.000000*%
%ADD64C,3.500000*%
%ADD65O,2.100000X1.700000*%
%ADD66RoundRect,0.300000X0.325000X0.450000X-0.325000X0.450000X-0.325000X-0.450000X0.325000X-0.450000X0*%
%ADD67RoundRect,0.050000X0.800000X0.800000X-0.800000X0.800000X-0.800000X-0.800000X0.800000X-0.800000X0*%
%ADD68RoundRect,0.200000X0.512500X0.150000X-0.512500X0.150000X-0.512500X-0.150000X0.512500X-0.150000X0*%
%ADD69RoundRect,0.100000X-0.387500X-0.050000X0.387500X-0.050000X0.387500X0.050000X-0.387500X0.050000X0*%
%ADD70RoundRect,0.100000X-0.050000X-0.387500X0.050000X-0.387500X0.050000X0.387500X-0.050000X0.387500X0*%
%ADD71RoundRect,0.194000X-1.456000X-1.456000X1.456000X-1.456000X1.456000X1.456000X-1.456000X1.456000X0*%
%ADD72C,1.900000*%
%ADD73RoundRect,0.050000X0.550000X-0.425000X0.550000X0.425000X-0.550000X0.425000X-0.550000X-0.425000X0*%
%ADD74RoundRect,0.050000X0.550000X-0.375000X0.550000X0.375000X-0.550000X0.375000X-0.550000X-0.375000X0*%
%ADD75RoundRect,0.050000X0.500000X-0.600000X0.500000X0.600000X-0.500000X0.600000X-0.500000X-0.600000X0*%
%ADD76RoundRect,0.050000X0.675000X-0.775000X0.675000X0.775000X-0.675000X0.775000X-0.675000X-0.775000X0*%
%ADD77RoundRect,0.050000X0.675000X-0.950000X0.675000X0.950000X-0.675000X0.950000X-0.675000X-0.950000X0*%
%ADD78RoundRect,0.050000X0.900000X-0.585000X0.900000X0.585000X-0.900000X0.585000X-0.900000X-0.585000X0*%
%ADD79RoundRect,0.150000X-0.637500X-0.100000X0.637500X-0.100000X0.637500X0.100000X-0.637500X0.100000X0*%
%ADD80RoundRect,0.050000X-0.950000X0.150000X-0.950000X-0.150000X0.950000X-0.150000X0.950000X0.150000X0*%
%ADD81C,2.095000*%
%ADD82RoundRect,0.300000X0.550000X-1.137500X0.550000X1.137500X-0.550000X1.137500X-0.550000X-1.137500X0*%
%ADD83RoundRect,0.200000X-0.650000X-0.150000X0.650000X-0.150000X0.650000X0.150000X-0.650000X0.150000X0*%
G04 APERTURE END LIST*
D10*
X57912000Y-97484250D03*
D11*
X57911999Y-100024249D03*
D12*
X57761500Y-115316000D03*
X59586500Y-115316000D03*
D13*
X111571000Y-77216950D03*
X111571000Y-78486950D03*
X111571000Y-79756950D03*
X111571000Y-81026950D03*
X111571000Y-82296950D03*
X111571000Y-83566950D03*
X111571000Y-84836950D03*
X116521000Y-84836950D03*
X116521000Y-83566950D03*
X116521000Y-82296950D03*
X116521000Y-81026950D03*
X116521000Y-79756950D03*
X116521000Y-78486950D03*
X116521000Y-77216950D03*
D12*
X119229500Y-80772950D03*
X121054500Y-80772950D03*
X119229500Y-71882950D03*
X121054500Y-71882950D03*
D14*
X131100000Y-107832000D03*
X131100000Y-99432000D03*
X135600000Y-107832000D03*
X135600000Y-99432000D03*
D15*
X86868000Y-55998000D03*
X86868000Y-51698000D03*
D16*
X121004500Y-75438950D03*
X119279500Y-75438950D03*
D14*
X131100000Y-75828000D03*
X131100000Y-67428000D03*
X135600000Y-75828000D03*
X135600000Y-67428000D03*
D11*
X58419999Y-40639999D03*
X58419999Y-43179999D03*
D10*
X58420000Y-45720000D03*
D11*
X58419999Y-48259999D03*
X58419999Y-50799999D03*
X58419999Y-53339999D03*
X58419999Y-55879999D03*
D10*
X58420000Y-58420000D03*
D11*
X58419999Y-60959999D03*
X58419999Y-63499999D03*
X58419999Y-66039999D03*
X58419999Y-68579999D03*
D10*
X58420000Y-71120000D03*
D11*
X58419999Y-73659999D03*
X58419999Y-76199999D03*
X58419999Y-78739999D03*
X58419999Y-81279999D03*
D10*
X58420000Y-83820000D03*
D11*
X58419999Y-86359999D03*
X58419999Y-88899999D03*
X76199999Y-88899999D03*
X76199999Y-86359999D03*
D10*
X76200000Y-83820000D03*
D11*
X76199999Y-81279999D03*
X76199999Y-78739999D03*
X76199999Y-76199999D03*
X76199999Y-73659999D03*
D10*
X76200000Y-71120000D03*
D11*
X76199999Y-68579999D03*
X76199999Y-66039999D03*
X76199999Y-63499999D03*
X76199999Y-60959999D03*
D10*
X76200000Y-58420000D03*
D11*
X76199999Y-55879999D03*
X76199999Y-53339999D03*
X76199999Y-50799999D03*
X76199999Y-48259999D03*
D10*
X76200000Y-45720000D03*
D11*
X76199999Y-43179999D03*
X76199999Y-40639999D03*
X64769999Y-88669999D03*
D10*
X67310000Y-88670000D03*
D11*
X69849999Y-88669999D03*
D12*
X119229500Y-70104950D03*
X121054500Y-70104950D03*
X119229500Y-84328950D03*
X121054500Y-84328950D03*
D17*
X105664000Y-80264000D03*
D18*
X133985000Y-133985000D03*
D19*
X107580000Y-102195000D03*
D20*
X107580000Y-97195000D03*
X107580000Y-99695000D03*
D21*
X100080000Y-105295000D03*
X100080000Y-94095000D03*
D20*
X93080000Y-97195000D03*
X93080000Y-102195000D03*
D22*
X97178500Y-84582000D03*
X95353500Y-84582000D03*
X63396500Y-122428000D03*
X61571500Y-122428000D03*
D23*
X123836000Y-110928000D03*
D24*
X123836000Y-110128000D03*
X123836000Y-109328000D03*
D23*
X123836000Y-108528000D03*
X122036000Y-108528000D03*
D24*
X122036000Y-109328000D03*
X122036000Y-110128000D03*
D23*
X122036000Y-110928000D03*
D25*
X99949000Y-69167000D03*
X99949000Y-71242000D03*
D26*
X115288000Y-71882950D03*
X111788000Y-71882950D03*
D13*
X100141000Y-112522000D03*
X100141000Y-113792000D03*
X100141000Y-115062000D03*
X100141000Y-116332000D03*
X100141000Y-117602000D03*
X100141000Y-118872000D03*
X100141000Y-120142000D03*
X105091000Y-120142000D03*
X105091000Y-118872000D03*
X105091000Y-117602000D03*
X105091000Y-116332000D03*
X105091000Y-115062000D03*
X105091000Y-113792000D03*
X105091000Y-112522000D03*
D27*
X94451500Y-58928000D03*
X91476500Y-58928000D03*
D10*
X50292000Y-97484250D03*
D11*
X50291999Y-100024249D03*
D17*
X84963000Y-82169000D03*
D28*
X93472000Y-121007500D03*
X93472000Y-122832500D03*
D14*
X131100000Y-86496000D03*
X131100000Y-78096000D03*
X135600000Y-86496000D03*
X135600000Y-78096000D03*
D22*
X59586500Y-122428000D03*
X57761500Y-122428000D03*
D16*
X104140000Y-123444000D03*
X102415000Y-123444000D03*
D29*
X48311000Y-43437250D03*
D30*
X49111000Y-43437250D03*
X49911000Y-43437250D03*
D29*
X50711000Y-43437250D03*
X50711000Y-41637250D03*
D30*
X49911000Y-41637250D03*
X49111000Y-41637250D03*
D29*
X48311000Y-41637250D03*
D31*
X85380500Y-58928000D03*
X88355500Y-58928000D03*
D14*
X131100000Y-65169000D03*
X131100000Y-56769000D03*
X135600000Y-65169000D03*
X135600000Y-56769000D03*
D26*
X115288000Y-69342950D03*
X111788000Y-69342950D03*
D16*
X101319500Y-79462000D03*
X99594500Y-79462000D03*
X101319500Y-74649500D03*
X99594500Y-74649500D03*
D32*
X50800000Y-62637500D03*
X50800000Y-64362500D03*
D33*
X93472000Y-119276500D03*
X93472000Y-117451500D03*
D12*
X110339500Y-99695000D03*
X112164500Y-99695000D03*
D34*
X61446500Y-114554000D03*
X63521500Y-114554000D03*
D35*
X103404500Y-110744000D03*
X105129500Y-110744000D03*
D33*
X93472000Y-112164500D03*
X93472000Y-110339500D03*
D36*
X41950000Y-125349000D03*
X48950000Y-125349000D03*
D37*
X40850000Y-129049000D03*
D38*
X50250000Y-129049000D03*
D37*
X42850000Y-121649000D03*
D39*
X127635000Y-115325000D03*
X127635000Y-113275000D03*
D22*
X123594500Y-63246000D03*
X121769500Y-63246000D03*
D14*
X131100000Y-97173000D03*
X131100000Y-88773000D03*
X135600000Y-97173000D03*
X135600000Y-88773000D03*
D40*
X43185000Y-79840000D03*
X43185000Y-104840000D03*
D41*
X45235000Y-96655000D03*
D42*
X45235000Y-94365000D03*
X45235000Y-92075000D03*
X45235000Y-89785000D03*
X45235000Y-87495000D03*
X43255000Y-97800000D03*
X43255000Y-95510000D03*
X43255000Y-93220000D03*
X43255000Y-90930000D03*
X43255000Y-88640000D03*
X41275000Y-96655000D03*
X41275000Y-94365000D03*
X41275000Y-92075000D03*
X41275000Y-89785000D03*
X41275000Y-87495000D03*
D12*
X96877500Y-64008000D03*
X98702500Y-64008000D03*
D43*
X126697500Y-108016000D03*
X126697500Y-109916000D03*
X128572500Y-108966000D03*
D28*
X83058000Y-64974000D03*
X83058000Y-66799000D03*
D35*
X87148500Y-79462000D03*
X88873500Y-79462000D03*
D23*
X123836000Y-105340000D03*
D24*
X123836000Y-104540000D03*
X123836000Y-103740000D03*
D23*
X123836000Y-102940000D03*
X122036000Y-102940000D03*
D24*
X122036000Y-103740000D03*
X122036000Y-104540000D03*
D23*
X122036000Y-105340000D03*
D33*
X94615000Y-71093500D03*
X94615000Y-69268500D03*
D44*
X122936000Y-133096000D03*
D11*
X122935999Y-130555999D03*
X122935999Y-128015999D03*
X122935999Y-125475999D03*
X122935999Y-122935999D03*
X122935999Y-120395999D03*
X122935999Y-117855999D03*
X122935999Y-115315999D03*
D45*
X58674000Y-130345000D03*
X58674000Y-128270000D03*
D46*
X67331500Y-135636000D03*
X65256500Y-135636000D03*
D47*
X67812500Y-122362000D03*
X67812500Y-121412000D03*
X67812500Y-120462000D03*
X65537500Y-120462000D03*
X65537500Y-121412000D03*
X65537500Y-122362000D03*
D22*
X112164500Y-97195000D03*
X110339500Y-97195000D03*
D32*
X49530000Y-87783500D03*
X49530000Y-89508500D03*
D39*
X127635000Y-104657000D03*
X127635000Y-102607000D03*
D43*
X126697500Y-118938000D03*
X126697500Y-120838000D03*
X128572500Y-119888000D03*
D18*
X87630000Y-87630000D03*
D16*
X101319500Y-82042000D03*
X99594500Y-82042000D03*
D35*
X92355500Y-91186000D03*
X94080500Y-91186000D03*
D22*
X59586500Y-117094000D03*
X57761500Y-117094000D03*
D18*
X41275000Y-133985000D03*
D32*
X93218000Y-65024000D03*
X93218000Y-66749000D03*
D48*
X110352000Y-88335950D03*
D49*
X110352000Y-89135950D03*
X110352000Y-89935950D03*
D48*
X110352000Y-90735950D03*
X112152000Y-90735950D03*
D49*
X112152000Y-89935950D03*
X112152000Y-89135950D03*
D48*
X112152000Y-88335950D03*
D50*
X92796000Y-88830000D03*
X97196000Y-88830000D03*
X97196000Y-86430000D03*
X92796000Y-86430000D03*
D51*
X117593000Y-63246000D03*
X119643000Y-63246000D03*
D52*
X117856000Y-98044000D03*
D11*
X120395999Y-98043999D03*
X122935999Y-98043999D03*
D48*
X49900000Y-69920000D03*
D49*
X49900000Y-70720000D03*
X49900000Y-71520000D03*
D48*
X49900000Y-72320000D03*
X51700000Y-72320000D03*
D49*
X51700000Y-71520000D03*
X51700000Y-70720000D03*
D48*
X51700000Y-69920000D03*
D14*
X103160000Y-72526000D03*
X103160000Y-64126000D03*
X107660000Y-72526000D03*
X107660000Y-64126000D03*
D43*
X82453000Y-121214000D03*
X82453000Y-123114000D03*
X84328000Y-122164000D03*
D53*
X98958000Y-53072000D03*
X98958000Y-55372000D03*
D54*
X105258000Y-55372000D03*
D53*
X98958000Y-57672000D03*
D55*
X114554000Y-51971000D03*
X114554000Y-55471000D03*
D44*
X120396000Y-133096000D03*
D11*
X120395999Y-130555999D03*
X120395999Y-128015999D03*
X120395999Y-125475999D03*
X120395999Y-122935999D03*
X120395999Y-120395999D03*
X120395999Y-117855999D03*
X120395999Y-115315999D03*
D35*
X57811500Y-120650000D03*
X59536500Y-120650000D03*
D56*
X110236000Y-123952000D03*
D57*
X94918000Y-125476000D03*
X94918000Y-126746000D03*
X94918000Y-128016000D03*
X94918000Y-129286000D03*
X94918000Y-130556000D03*
X94918000Y-131826000D03*
X94918000Y-133096000D03*
X94918000Y-134366000D03*
X94918000Y-135636000D03*
X104218000Y-135636000D03*
X104218000Y-134366000D03*
X104218000Y-133096000D03*
X104218000Y-131826000D03*
X104218000Y-130556000D03*
X104218000Y-129286000D03*
X104218000Y-128016000D03*
X104218000Y-126746000D03*
X104218000Y-125476000D03*
D10*
X52832000Y-97484250D03*
D11*
X52831999Y-100024249D03*
D33*
X116840000Y-54633500D03*
X116840000Y-52808500D03*
D23*
X97420000Y-116516000D03*
D24*
X97420000Y-115716000D03*
X97420000Y-114916000D03*
D23*
X97420000Y-114116000D03*
X95620000Y-114116000D03*
D24*
X95620000Y-114916000D03*
X95620000Y-115716000D03*
D23*
X95620000Y-116516000D03*
D35*
X46889500Y-134874000D03*
X48614500Y-134874000D03*
D23*
X113168000Y-129146000D03*
D24*
X113168000Y-128346000D03*
X113168000Y-127546000D03*
D23*
X113168000Y-126746000D03*
X111368000Y-126746000D03*
D24*
X111368000Y-127546000D03*
X111368000Y-128346000D03*
D23*
X111368000Y-129146000D03*
D58*
X90820000Y-48260000D03*
D59*
X90819999Y-41959999D03*
D60*
X86019999Y-45359999D03*
D34*
X65256500Y-124460000D03*
X67331500Y-124460000D03*
D28*
X60452000Y-103175750D03*
X60452000Y-105000750D03*
D16*
X121004500Y-82550950D03*
X119279500Y-82550950D03*
X83745000Y-111750000D03*
X82020000Y-111750000D03*
D52*
X75145500Y-126482000D03*
D11*
X77685499Y-126481999D03*
X80225499Y-126481999D03*
X82765499Y-126481999D03*
D61*
X82296000Y-87577000D03*
X82296000Y-85852000D03*
D39*
X127635000Y-72653000D03*
X127635000Y-70603000D03*
D56*
X55626000Y-110998000D03*
D26*
X115288000Y-74422950D03*
X111788000Y-74422950D03*
D39*
X127635000Y-51326000D03*
X127635000Y-49276000D03*
D10*
X70612000Y-97484250D03*
D11*
X70611999Y-100024249D03*
D35*
X57811500Y-118872000D03*
X59536500Y-118872000D03*
D52*
X117871000Y-88900950D03*
D11*
X120410999Y-88900949D03*
X122950999Y-88900949D03*
D22*
X123585500Y-59690000D03*
X121760500Y-59690000D03*
D61*
X52832000Y-54075500D03*
X52832000Y-52350500D03*
D28*
X68072000Y-103175750D03*
X68072000Y-105000750D03*
D35*
X46889500Y-131826000D03*
X48614500Y-131826000D03*
D22*
X123585500Y-66802000D03*
X121760500Y-66802000D03*
D36*
X41950000Y-114046000D03*
X48950000Y-114046000D03*
D37*
X40850000Y-117746000D03*
D38*
X50250000Y-117746000D03*
D37*
X42850000Y-110346000D03*
D28*
X83058000Y-58015500D03*
X83058000Y-59840500D03*
D39*
X127635000Y-125993000D03*
X127635000Y-123943000D03*
D22*
X63396500Y-118872000D03*
X61571500Y-118872000D03*
D33*
X96139000Y-71093500D03*
X96139000Y-69268500D03*
D62*
X87264000Y-64970503D03*
D63*
X85964000Y-64970503D03*
D10*
X62992000Y-97484250D03*
D11*
X62991999Y-100024249D03*
D22*
X52474500Y-134874000D03*
X50649500Y-134874000D03*
D35*
X61621500Y-135636000D03*
X63346500Y-135636000D03*
D12*
X119229500Y-73660950D03*
X121054500Y-73660950D03*
D52*
X117871000Y-92710950D03*
D11*
X120410999Y-92710949D03*
X122950999Y-92710949D03*
D28*
X92456000Y-129643500D03*
X92456000Y-131468500D03*
D46*
X63521500Y-124460000D03*
X61446500Y-124460000D03*
D17*
X81915000Y-82169000D03*
D56*
X89916000Y-83820000D03*
D44*
X117856000Y-133096000D03*
D11*
X117855999Y-130555999D03*
X117855999Y-128015999D03*
X117855999Y-125475999D03*
X117855999Y-122935999D03*
X117855999Y-120395999D03*
X117855999Y-117855999D03*
X117855999Y-115315999D03*
D10*
X127508000Y-41656000D03*
D11*
X127507999Y-44195999D03*
D12*
X96877500Y-60706000D03*
X98702500Y-60706000D03*
D16*
X101324500Y-76176000D03*
X99599500Y-76176000D03*
D28*
X62992000Y-103175750D03*
X62992000Y-105000750D03*
X55372000Y-103175750D03*
X55372000Y-105000750D03*
D64*
X112865000Y-110805000D03*
X89065000Y-110805000D03*
X112865000Y-134305000D03*
X89065000Y-134305000D03*
D65*
X88564999Y-118744999D03*
X88564999Y-121284999D03*
X88564999Y-123824999D03*
X88564999Y-126364999D03*
D23*
X119772000Y-105340000D03*
D24*
X119772000Y-104540000D03*
X119772000Y-103740000D03*
D23*
X119772000Y-102940000D03*
X117972000Y-102940000D03*
D24*
X117972000Y-103740000D03*
X117972000Y-104540000D03*
D23*
X117972000Y-105340000D03*
D12*
X57761500Y-126365000D03*
X59586500Y-126365000D03*
D35*
X65431500Y-126365000D03*
X67156500Y-126365000D03*
D28*
X50292000Y-103175750D03*
X50292000Y-105000750D03*
D48*
X82158000Y-75457200D03*
D49*
X82158000Y-76257200D03*
X82158000Y-77057200D03*
D48*
X82158000Y-77857200D03*
X83958000Y-77857200D03*
D49*
X83958000Y-77057200D03*
X83958000Y-76257200D03*
D48*
X83958000Y-75457200D03*
D22*
X112164500Y-102195000D03*
X110339500Y-102195000D03*
D17*
X105664000Y-77724000D03*
D16*
X121004500Y-78994950D03*
X119279500Y-78994950D03*
D10*
X73152000Y-97484250D03*
D11*
X73151999Y-100024249D03*
D19*
X123063000Y-45212000D03*
D20*
X115463000Y-45212000D03*
D15*
X92964000Y-55998000D03*
X92964000Y-51698000D03*
D28*
X57912000Y-103175750D03*
X57912000Y-105000750D03*
D51*
X117593000Y-66802000D03*
X119643000Y-66802000D03*
D17*
X105664000Y-82804000D03*
D16*
X97636500Y-91186000D03*
X95911500Y-91186000D03*
X63346500Y-126365000D03*
X61621500Y-126365000D03*
D14*
X131100000Y-54501000D03*
X131100000Y-46101000D03*
X135600000Y-54501000D03*
X135600000Y-46101000D03*
D23*
X119772000Y-110928000D03*
D24*
X119772000Y-110128000D03*
X119772000Y-109328000D03*
D23*
X119772000Y-108528000D03*
X117972000Y-108528000D03*
D24*
X117972000Y-109328000D03*
X117972000Y-110128000D03*
D23*
X117972000Y-110928000D03*
D14*
X131100000Y-118500000D03*
X131100000Y-110100000D03*
X135600000Y-118500000D03*
X135600000Y-110100000D03*
D51*
X117593000Y-59690000D03*
X119643000Y-59690000D03*
D32*
X91694000Y-65024000D03*
X91694000Y-66749000D03*
D39*
X127635000Y-83321000D03*
X127635000Y-81271000D03*
D48*
X71684500Y-120964000D03*
D49*
X71684500Y-121764000D03*
X71684500Y-122564000D03*
D48*
X71684500Y-123364000D03*
X73484500Y-123364000D03*
D49*
X73484500Y-122564000D03*
X73484500Y-121764000D03*
D48*
X73484500Y-120964000D03*
D45*
X58674000Y-134387500D03*
X58674000Y-132312500D03*
D10*
X65532000Y-97484250D03*
D11*
X65531999Y-100024249D03*
D10*
X60452000Y-97484250D03*
D11*
X60451999Y-100024249D03*
D14*
X131100000Y-129168000D03*
X131100000Y-120768000D03*
X135600000Y-129168000D03*
X135600000Y-120768000D03*
D66*
X102879000Y-60706000D03*
X100829000Y-60706000D03*
D25*
X97917000Y-69167000D03*
X97917000Y-71242000D03*
D34*
X105388500Y-60706000D03*
X107463500Y-60706000D03*
D67*
X103144000Y-49713500D03*
D42*
X105644000Y-49713500D03*
X105644000Y-47713500D03*
X103144000Y-47713500D03*
D40*
X98394000Y-44853500D03*
X110394000Y-44853500D03*
D33*
X93472000Y-115720500D03*
X93472000Y-113895500D03*
D68*
X67812500Y-118552000D03*
X67812500Y-117602000D03*
X67812500Y-116652000D03*
X65537500Y-116652000D03*
X65537500Y-118552000D03*
D43*
X126697500Y-97602000D03*
X126697500Y-99502000D03*
X128572500Y-98552000D03*
D35*
X87148500Y-75411500D03*
X88873500Y-75411500D03*
D25*
X96520000Y-52810500D03*
X96520000Y-54885500D03*
D28*
X70612000Y-103175750D03*
X70612000Y-105000750D03*
D69*
X90796500Y-75862000D03*
X90796500Y-76262000D03*
X90796500Y-76662000D03*
X90796500Y-77062000D03*
X90796500Y-77462000D03*
X90796500Y-77862000D03*
X90796500Y-78262000D03*
X90796500Y-78662000D03*
X90796500Y-79062000D03*
X90796500Y-79462000D03*
X90796500Y-79862000D03*
X90796500Y-80262000D03*
X90796500Y-80662000D03*
X90796500Y-81062000D03*
D70*
X91634000Y-81899500D03*
X92034000Y-81899500D03*
X92434000Y-81899500D03*
X92834000Y-81899500D03*
X93234000Y-81899500D03*
X93634000Y-81899500D03*
X94034000Y-81899500D03*
X94434000Y-81899500D03*
X94834000Y-81899500D03*
X95234000Y-81899500D03*
X95634000Y-81899500D03*
X96034000Y-81899500D03*
X96434000Y-81899500D03*
X96834000Y-81899500D03*
D69*
X97671500Y-81062000D03*
X97671500Y-80662000D03*
X97671500Y-80262000D03*
X97671500Y-79862000D03*
X97671500Y-79462000D03*
X97671500Y-79062000D03*
X97671500Y-78662000D03*
X97671500Y-78262000D03*
X97671500Y-77862000D03*
X97671500Y-77462000D03*
X97671500Y-77062000D03*
X97671500Y-76662000D03*
X97671500Y-76262000D03*
X97671500Y-75862000D03*
D70*
X96834000Y-75024500D03*
X96434000Y-75024500D03*
X96034000Y-75024500D03*
X95634000Y-75024500D03*
X95234000Y-75024500D03*
X94834000Y-75024500D03*
X94434000Y-75024500D03*
X94034000Y-75024500D03*
X93634000Y-75024500D03*
X93234000Y-75024500D03*
X92834000Y-75024500D03*
X92434000Y-75024500D03*
X92034000Y-75024500D03*
X91634000Y-75024500D03*
D71*
X94234000Y-78462000D03*
D39*
X127635000Y-93998000D03*
X127635000Y-91948000D03*
D40*
X82870000Y-104095000D03*
X82870000Y-95295000D03*
D72*
X89870000Y-97195000D03*
X89870000Y-99695000D03*
X89870000Y-102195000D03*
D61*
X90170000Y-66749000D03*
X90170000Y-65024000D03*
D43*
X121363500Y-52771000D03*
X121363500Y-54671000D03*
X123238500Y-53721000D03*
D13*
X78883500Y-113909000D03*
X78883500Y-115179000D03*
X78883500Y-116449000D03*
X78883500Y-117719000D03*
X83833500Y-117719000D03*
X83833500Y-116449000D03*
X83833500Y-115179000D03*
X83833500Y-113909000D03*
D39*
X127635000Y-61994000D03*
X127635000Y-59944000D03*
D28*
X73152000Y-103175750D03*
X73152000Y-105000750D03*
D16*
X121004500Y-86106950D03*
X119279500Y-86106950D03*
D48*
X49900000Y-66110000D03*
D49*
X49900000Y-66910000D03*
X49900000Y-67710000D03*
D48*
X49900000Y-68510000D03*
X51700000Y-68510000D03*
D49*
X51700000Y-67710000D03*
X51700000Y-66910000D03*
D48*
X51700000Y-66110000D03*
D33*
X82296000Y-91286500D03*
X82296000Y-89461500D03*
D73*
X39406400Y-54311400D03*
X39406400Y-53211400D03*
X39406400Y-52111400D03*
X39406400Y-51011400D03*
X39406400Y-49911400D03*
X39406400Y-48811400D03*
X39406400Y-47711400D03*
D74*
X39406400Y-46661400D03*
D75*
X45556400Y-56946400D03*
X49256400Y-56946400D03*
D76*
X39531400Y-56771400D03*
D77*
X50231400Y-53446400D03*
X50231400Y-47476400D03*
D78*
X39756400Y-45451400D03*
D23*
X128535000Y-66986000D03*
D24*
X128535000Y-66186000D03*
X128535000Y-65386000D03*
D23*
X128535000Y-64586000D03*
X126735000Y-64586000D03*
D24*
X126735000Y-65386000D03*
X126735000Y-66186000D03*
D23*
X126735000Y-66986000D03*
D34*
X65510500Y-114554000D03*
X67585500Y-114554000D03*
D18*
X41275000Y-41275000D03*
D16*
X101319500Y-84582000D03*
X99594500Y-84582000D03*
D35*
X61621500Y-120650000D03*
X63346500Y-120650000D03*
D10*
X55372000Y-97484250D03*
D11*
X55371999Y-100024249D03*
D43*
X126697500Y-129606000D03*
X126697500Y-131506000D03*
X128572500Y-130556000D03*
D34*
X61446500Y-116840000D03*
X63521500Y-116840000D03*
D79*
X61526500Y-127885000D03*
X61526500Y-128535000D03*
X61526500Y-129185000D03*
X61526500Y-129835000D03*
X61526500Y-130485000D03*
X61526500Y-131135000D03*
X61526500Y-131785000D03*
X61526500Y-132435000D03*
X61526500Y-133085000D03*
X61526500Y-133735000D03*
X67251500Y-133735000D03*
X67251500Y-133085000D03*
X67251500Y-132435000D03*
X67251500Y-131785000D03*
X67251500Y-131135000D03*
X67251500Y-130485000D03*
X67251500Y-129835000D03*
X67251500Y-129185000D03*
X67251500Y-128535000D03*
X67251500Y-127885000D03*
D46*
X59690000Y-124460000D03*
X57615000Y-124460000D03*
D61*
X69215000Y-130630000D03*
X69215000Y-128905000D03*
D43*
X77489000Y-121214000D03*
X77489000Y-123114000D03*
X79364000Y-122164000D03*
D22*
X52474500Y-131826000D03*
X50649500Y-131826000D03*
D18*
X133985000Y-41275000D03*
D80*
X46594500Y-72009200D03*
X46594500Y-71509200D03*
X46594500Y-71009200D03*
X46594500Y-70509200D03*
X46594500Y-70009200D03*
X46594500Y-69509200D03*
X46594500Y-69009200D03*
X46594500Y-68509200D03*
X46594500Y-68009200D03*
X46594500Y-67509200D03*
X46594500Y-67009200D03*
X46594500Y-66509200D03*
X46594500Y-66009200D03*
X46594500Y-65509200D03*
X46594500Y-65009200D03*
X46594500Y-64509200D03*
X46594500Y-64009200D03*
X46594500Y-63509200D03*
X46594500Y-63009200D03*
D81*
X40794500Y-59409200D03*
X45694500Y-60009200D03*
X45694500Y-74509200D03*
X40794500Y-75109200D03*
D82*
X109728000Y-57942500D03*
X109728000Y-53817500D03*
D12*
X119229500Y-77216950D03*
X121054500Y-77216950D03*
D28*
X52832000Y-103175750D03*
X52832000Y-105000750D03*
D52*
X75145500Y-134112000D03*
D11*
X77685499Y-134111999D03*
X80225499Y-134111999D03*
X82765499Y-134111999D03*
D83*
X83014000Y-68807500D03*
X83014000Y-70077500D03*
X83014000Y-71347500D03*
X83014000Y-72617500D03*
X90214000Y-72617500D03*
X90214000Y-71347500D03*
X90214000Y-70077500D03*
X90214000Y-68807500D03*
D23*
X109104000Y-129146000D03*
D24*
X109104000Y-128346000D03*
X109104000Y-127546000D03*
D23*
X109104000Y-126746000D03*
X107304000Y-126746000D03*
D24*
X107304000Y-127546000D03*
X107304000Y-128346000D03*
D23*
X107304000Y-129146000D03*
D28*
X65532000Y-103175750D03*
X65532000Y-105000750D03*
D10*
X68072000Y-97484250D03*
D11*
X68071999Y-100024249D03*
D28*
X118872000Y-52808500D03*
X118872000Y-54633500D03*
M02*
