G04 #@! TF.GenerationSoftware,KiCad,Pcbnew,(6.99.0-1115-g98f4b1d16c)*
G04 #@! TF.CreationDate,2022-03-30T22:22:08+02:00*
G04 #@! TF.ProjectId,rpi_pico_kit,7270695f-7069-4636-9f5f-6b69742e6b69,1*
G04 #@! TF.SameCoordinates,Original*
G04 #@! TF.FileFunction,Paste,Top*
G04 #@! TF.FilePolarity,Positive*
%FSLAX46Y46*%
G04 Gerber Fmt 4.6, Leading zero omitted, Abs format (unit mm)*
G04 Created by KiCad (PCBNEW (6.99.0-1115-g98f4b1d16c)) date 2022-03-30 22:22:08*
%MOMM*%
%LPD*%
G01*
G04 APERTURE LIST*
G04 Aperture macros list*
%AMRoundRect*
0 Rectangle with rounded corners*
0 $1 Rounding radius*
0 $2 $3 $4 $5 $6 $7 $8 $9 X,Y pos of 4 corners*
0 Add a 4 corners polygon primitive as box body*
4,1,4,$2,$3,$4,$5,$6,$7,$8,$9,$2,$3,0*
0 Add four circle primitives for the rounded corners*
1,1,$1+$1,$2,$3*
1,1,$1+$1,$4,$5*
1,1,$1+$1,$6,$7*
1,1,$1+$1,$8,$9*
0 Add four rect primitives between the rounded corners*
20,1,$1+$1,$2,$3,$4,$5,0*
20,1,$1+$1,$4,$5,$6,$7,0*
20,1,$1+$1,$6,$7,$8,$9,0*
20,1,$1+$1,$8,$9,$2,$3,0*%
G04 Aperture macros list end*
%ADD10RoundRect,0.237500X-0.250000X-0.237500X0.250000X-0.237500X0.250000X0.237500X-0.250000X0.237500X0*%
%ADD11RoundRect,0.150000X-0.825000X-0.150000X0.825000X-0.150000X0.825000X0.150000X-0.825000X0.150000X0*%
%ADD12R,1.400000X1.600000*%
%ADD13R,2.300000X2.500000*%
%ADD14RoundRect,0.237500X0.300000X0.237500X-0.300000X0.237500X-0.300000X-0.237500X0.300000X-0.237500X0*%
%ADD15RoundRect,0.237500X0.250000X0.237500X-0.250000X0.237500X-0.250000X-0.237500X0.250000X-0.237500X0*%
%ADD16R,0.800000X0.500000*%
%ADD17R,0.800000X0.400000*%
%ADD18RoundRect,0.250000X-0.475000X0.337500X-0.475000X-0.337500X0.475000X-0.337500X0.475000X0.337500X0*%
%ADD19R,1.300000X1.700000*%
%ADD20RoundRect,0.250001X0.462499X0.624999X-0.462499X0.624999X-0.462499X-0.624999X0.462499X-0.624999X0*%
%ADD21RoundRect,0.237500X-0.237500X0.250000X-0.237500X-0.250000X0.237500X-0.250000X0.237500X0.250000X0*%
%ADD22R,0.500000X0.800000*%
%ADD23R,0.400000X0.800000*%
%ADD24RoundRect,0.250001X-0.462499X-0.624999X0.462499X-0.624999X0.462499X0.624999X-0.462499X0.624999X0*%
%ADD25RoundRect,0.237500X-0.237500X0.300000X-0.237500X-0.300000X0.237500X-0.300000X0.237500X0.300000X0*%
%ADD26RoundRect,0.237500X0.237500X-0.250000X0.237500X0.250000X-0.237500X0.250000X-0.237500X-0.250000X0*%
%ADD27RoundRect,0.250000X-0.337500X-0.475000X0.337500X-0.475000X0.337500X0.475000X-0.337500X0.475000X0*%
%ADD28RoundRect,0.237500X-0.300000X-0.237500X0.300000X-0.237500X0.300000X0.237500X-0.300000X0.237500X0*%
%ADD29R,2.200000X2.800000*%
%ADD30R,2.800000X2.800000*%
%ADD31RoundRect,0.250000X0.450000X-0.325000X0.450000X0.325000X-0.450000X0.325000X-0.450000X-0.325000X0*%
%ADD32RoundRect,0.150000X-0.587500X-0.150000X0.587500X-0.150000X0.587500X0.150000X-0.587500X0.150000X0*%
%ADD33RoundRect,0.250000X0.475000X-0.337500X0.475000X0.337500X-0.475000X0.337500X-0.475000X-0.337500X0*%
%ADD34RoundRect,0.250000X0.337500X0.475000X-0.337500X0.475000X-0.337500X-0.475000X0.337500X-0.475000X0*%
%ADD35RoundRect,0.125000X0.587500X0.125000X-0.587500X0.125000X-0.587500X-0.125000X0.587500X-0.125000X0*%
%ADD36R,1.800000X1.400000*%
%ADD37RoundRect,0.250000X-0.325000X-0.450000X0.325000X-0.450000X0.325000X0.450000X-0.325000X0.450000X0*%
%ADD38R,2.000000X1.500000*%
%ADD39R,2.000000X3.800000*%
%ADD40R,1.700000X1.300000*%
%ADD41RoundRect,0.150000X-0.875000X-0.150000X0.875000X-0.150000X0.875000X0.150000X-0.875000X0.150000X0*%
%ADD42RoundRect,0.237500X0.237500X-0.300000X0.237500X0.300000X-0.237500X0.300000X-0.237500X-0.300000X0*%
%ADD43RoundRect,0.250000X0.325000X0.450000X-0.325000X0.450000X-0.325000X-0.450000X0.325000X-0.450000X0*%
%ADD44RoundRect,0.150000X0.512500X0.150000X-0.512500X0.150000X-0.512500X-0.150000X0.512500X-0.150000X0*%
%ADD45RoundRect,0.250000X-0.292217X-0.292217X0.292217X-0.292217X0.292217X0.292217X-0.292217X0.292217X0*%
%ADD46RoundRect,0.050000X-0.387500X-0.050000X0.387500X-0.050000X0.387500X0.050000X-0.387500X0.050000X0*%
%ADD47RoundRect,0.050000X-0.050000X-0.387500X0.050000X-0.387500X0.050000X0.387500X-0.050000X0.387500X0*%
%ADD48R,1.100000X0.850000*%
%ADD49R,1.100000X0.750000*%
%ADD50R,1.000000X1.200000*%
%ADD51R,1.350000X1.550000*%
%ADD52R,1.350000X1.900000*%
%ADD53R,1.800000X1.170000*%
%ADD54RoundRect,0.100000X-0.637500X-0.100000X0.637500X-0.100000X0.637500X0.100000X-0.637500X0.100000X0*%
%ADD55R,1.900000X0.300000*%
%ADD56RoundRect,0.250000X0.550000X-1.137500X0.550000X1.137500X-0.550000X1.137500X-0.550000X-1.137500X0*%
%ADD57RoundRect,0.150000X-0.650000X-0.150000X0.650000X-0.150000X0.650000X0.150000X-0.650000X0.150000X0*%
G04 APERTURE END LIST*
D10*
X57761500Y-115316000D03*
X59586500Y-115316000D03*
D11*
X111571000Y-77216950D03*
X111571000Y-78486950D03*
X111571000Y-79756950D03*
X111571000Y-81026950D03*
X111571000Y-82296950D03*
X111571000Y-83566950D03*
X111571000Y-84836950D03*
X116521000Y-84836950D03*
X116521000Y-83566950D03*
X116521000Y-82296950D03*
X116521000Y-81026950D03*
X116521000Y-79756950D03*
X116521000Y-78486950D03*
X116521000Y-77216950D03*
D10*
X119229500Y-80772950D03*
X121054500Y-80772950D03*
X119229500Y-71882950D03*
X121054500Y-71882950D03*
D12*
X131099999Y-107831999D03*
X131099999Y-99431999D03*
X135599999Y-107831999D03*
X135599999Y-99431999D03*
D13*
X86867999Y-55997999D03*
X86867999Y-51697999D03*
D14*
X121004500Y-75438950D03*
X119279500Y-75438950D03*
D12*
X131099999Y-75827999D03*
X131099999Y-67427999D03*
X135599999Y-75827999D03*
X135599999Y-67427999D03*
D10*
X119229500Y-70104950D03*
X121054500Y-70104950D03*
X119229500Y-84328950D03*
X121054500Y-84328950D03*
D15*
X97178500Y-84582000D03*
X95353500Y-84582000D03*
X63396500Y-122428000D03*
X61571500Y-122428000D03*
D16*
X123835999Y-110927999D03*
D17*
X123835999Y-110127999D03*
X123835999Y-109327999D03*
D16*
X123835999Y-108527999D03*
X122035999Y-108527999D03*
D17*
X122035999Y-109327999D03*
X122035999Y-110127999D03*
D16*
X122035999Y-110927999D03*
D18*
X99949000Y-69167000D03*
X99949000Y-71242000D03*
D19*
X115287999Y-71882949D03*
X111787999Y-71882949D03*
D11*
X100141000Y-112522000D03*
X100141000Y-113792000D03*
X100141000Y-115062000D03*
X100141000Y-116332000D03*
X100141000Y-117602000D03*
X100141000Y-118872000D03*
X100141000Y-120142000D03*
X105091000Y-120142000D03*
X105091000Y-118872000D03*
X105091000Y-117602000D03*
X105091000Y-116332000D03*
X105091000Y-115062000D03*
X105091000Y-113792000D03*
X105091000Y-112522000D03*
D20*
X94451500Y-58928000D03*
X91476500Y-58928000D03*
D21*
X93472000Y-121007500D03*
X93472000Y-122832500D03*
D12*
X131099999Y-86495999D03*
X131099999Y-78095999D03*
X135599999Y-86495999D03*
X135599999Y-78095999D03*
D15*
X59586500Y-122428000D03*
X57761500Y-122428000D03*
D14*
X104140000Y-123444000D03*
X102415000Y-123444000D03*
D22*
X48310999Y-43437249D03*
D23*
X49110999Y-43437249D03*
X49910999Y-43437249D03*
D22*
X50710999Y-43437249D03*
X50710999Y-41637249D03*
D23*
X49910999Y-41637249D03*
X49110999Y-41637249D03*
D22*
X48310999Y-41637249D03*
D24*
X85380500Y-58928000D03*
X88355500Y-58928000D03*
D12*
X131099999Y-65168999D03*
X131099999Y-56768999D03*
X135599999Y-65168999D03*
X135599999Y-56768999D03*
D19*
X115287999Y-69342949D03*
X111787999Y-69342949D03*
D14*
X101319500Y-79462000D03*
X99594500Y-79462000D03*
X101319500Y-74649500D03*
X99594500Y-74649500D03*
D25*
X50800000Y-62637500D03*
X50800000Y-64362500D03*
D26*
X93472000Y-119276500D03*
X93472000Y-117451500D03*
D10*
X110339500Y-99695000D03*
X112164500Y-99695000D03*
D27*
X61446500Y-114554000D03*
X63521500Y-114554000D03*
D28*
X103404500Y-110744000D03*
X105129500Y-110744000D03*
D26*
X93472000Y-112164500D03*
X93472000Y-110339500D03*
D29*
X40849999Y-129048999D03*
D30*
X50249999Y-129048999D03*
D29*
X42849999Y-121648999D03*
D31*
X127635000Y-115325000D03*
X127635000Y-113275000D03*
D15*
X123594500Y-63246000D03*
X121769500Y-63246000D03*
D12*
X131099999Y-97172999D03*
X131099999Y-88772999D03*
X135599999Y-97172999D03*
X135599999Y-88772999D03*
D10*
X96877500Y-64008000D03*
X98702500Y-64008000D03*
D32*
X126697500Y-108016000D03*
X126697500Y-109916000D03*
X128572500Y-108966000D03*
D21*
X83058000Y-64974000D03*
X83058000Y-66799000D03*
D28*
X87148500Y-79462000D03*
X88873500Y-79462000D03*
D16*
X123835999Y-105339999D03*
D17*
X123835999Y-104539999D03*
X123835999Y-103739999D03*
D16*
X123835999Y-102939999D03*
X122035999Y-102939999D03*
D17*
X122035999Y-103739999D03*
X122035999Y-104539999D03*
D16*
X122035999Y-105339999D03*
D26*
X94615000Y-71093500D03*
X94615000Y-69268500D03*
D33*
X58674000Y-130345000D03*
X58674000Y-128270000D03*
D34*
X67331500Y-135636000D03*
X65256500Y-135636000D03*
D35*
X67812500Y-122362000D03*
X67812500Y-121412000D03*
X67812500Y-120462000D03*
X65537500Y-120462000D03*
X65537500Y-121412000D03*
X65537500Y-122362000D03*
D15*
X112164500Y-97195000D03*
X110339500Y-97195000D03*
D25*
X49530000Y-87783500D03*
X49530000Y-89508500D03*
D31*
X127635000Y-104657000D03*
X127635000Y-102607000D03*
D32*
X126697500Y-118938000D03*
X126697500Y-120838000D03*
X128572500Y-119888000D03*
D14*
X101319500Y-82042000D03*
X99594500Y-82042000D03*
D28*
X92355500Y-91186000D03*
X94080500Y-91186000D03*
D15*
X59586500Y-117094000D03*
X57761500Y-117094000D03*
D25*
X93218000Y-65024000D03*
X93218000Y-66749000D03*
D16*
X110351999Y-88335949D03*
D17*
X110351999Y-89135949D03*
X110351999Y-89935949D03*
D16*
X110351999Y-90735949D03*
X112151999Y-90735949D03*
D17*
X112151999Y-89935949D03*
X112151999Y-89135949D03*
D16*
X112151999Y-88335949D03*
D36*
X92795999Y-88829999D03*
X97195999Y-88829999D03*
X97195999Y-86429999D03*
X92795999Y-86429999D03*
D37*
X117593000Y-63246000D03*
X119643000Y-63246000D03*
D16*
X49899999Y-69919999D03*
D17*
X49899999Y-70719999D03*
X49899999Y-71519999D03*
D16*
X49899999Y-72319999D03*
X51699999Y-72319999D03*
D17*
X51699999Y-71519999D03*
X51699999Y-70719999D03*
D16*
X51699999Y-69919999D03*
D12*
X103159999Y-72525999D03*
X103159999Y-64125999D03*
X107659999Y-72525999D03*
X107659999Y-64125999D03*
D32*
X82453000Y-121214000D03*
X82453000Y-123114000D03*
X84328000Y-122164000D03*
D38*
X98957999Y-53071999D03*
X98957999Y-55371999D03*
D39*
X105257999Y-55371999D03*
D38*
X98957999Y-57671999D03*
D40*
X114553999Y-51970999D03*
X114553999Y-55470999D03*
D28*
X57811500Y-120650000D03*
X59536500Y-120650000D03*
D41*
X94918000Y-125476000D03*
X94918000Y-126746000D03*
X94918000Y-128016000D03*
X94918000Y-129286000D03*
X94918000Y-130556000D03*
X94918000Y-131826000D03*
X94918000Y-133096000D03*
X94918000Y-134366000D03*
X94918000Y-135636000D03*
X104218000Y-135636000D03*
X104218000Y-134366000D03*
X104218000Y-133096000D03*
X104218000Y-131826000D03*
X104218000Y-130556000D03*
X104218000Y-129286000D03*
X104218000Y-128016000D03*
X104218000Y-126746000D03*
X104218000Y-125476000D03*
D26*
X116840000Y-54633500D03*
X116840000Y-52808500D03*
D16*
X97419999Y-116515999D03*
D17*
X97419999Y-115715999D03*
X97419999Y-114915999D03*
D16*
X97419999Y-114115999D03*
X95619999Y-114115999D03*
D17*
X95619999Y-114915999D03*
X95619999Y-115715999D03*
D16*
X95619999Y-116515999D03*
D28*
X46889500Y-134874000D03*
X48614500Y-134874000D03*
D16*
X113167999Y-129145999D03*
D17*
X113167999Y-128345999D03*
X113167999Y-127545999D03*
D16*
X113167999Y-126745999D03*
X111367999Y-126745999D03*
D17*
X111367999Y-127545999D03*
X111367999Y-128345999D03*
D16*
X111367999Y-129145999D03*
D27*
X65256500Y-124460000D03*
X67331500Y-124460000D03*
D21*
X60452000Y-103175750D03*
X60452000Y-105000750D03*
D14*
X121004500Y-82550950D03*
X119279500Y-82550950D03*
X83745000Y-111750000D03*
X82020000Y-111750000D03*
D42*
X82296000Y-87577000D03*
X82296000Y-85852000D03*
D31*
X127635000Y-72653000D03*
X127635000Y-70603000D03*
D19*
X115287999Y-74422949D03*
X111787999Y-74422949D03*
D31*
X127635000Y-51326000D03*
X127635000Y-49276000D03*
D28*
X57811500Y-118872000D03*
X59536500Y-118872000D03*
D15*
X123585500Y-59690000D03*
X121760500Y-59690000D03*
D42*
X52832000Y-54075500D03*
X52832000Y-52350500D03*
D21*
X68072000Y-103175750D03*
X68072000Y-105000750D03*
D28*
X46889500Y-131826000D03*
X48614500Y-131826000D03*
D15*
X123585500Y-66802000D03*
X121760500Y-66802000D03*
D29*
X40849999Y-117745999D03*
D30*
X50249999Y-117745999D03*
D29*
X42849999Y-110345999D03*
D21*
X83058000Y-58015500D03*
X83058000Y-59840500D03*
D31*
X127635000Y-125993000D03*
X127635000Y-123943000D03*
D15*
X63396500Y-118872000D03*
X61571500Y-118872000D03*
D26*
X96139000Y-71093500D03*
X96139000Y-69268500D03*
D15*
X52474500Y-134874000D03*
X50649500Y-134874000D03*
D28*
X61621500Y-135636000D03*
X63346500Y-135636000D03*
D10*
X119229500Y-73660950D03*
X121054500Y-73660950D03*
D21*
X92456000Y-129643500D03*
X92456000Y-131468500D03*
D34*
X63521500Y-124460000D03*
X61446500Y-124460000D03*
D10*
X96877500Y-60706000D03*
X98702500Y-60706000D03*
D14*
X101324500Y-76176000D03*
X99599500Y-76176000D03*
D21*
X62992000Y-103175750D03*
X62992000Y-105000750D03*
X55372000Y-103175750D03*
X55372000Y-105000750D03*
D16*
X119771999Y-105339999D03*
D17*
X119771999Y-104539999D03*
X119771999Y-103739999D03*
D16*
X119771999Y-102939999D03*
X117971999Y-102939999D03*
D17*
X117971999Y-103739999D03*
X117971999Y-104539999D03*
D16*
X117971999Y-105339999D03*
D10*
X57761500Y-126365000D03*
X59586500Y-126365000D03*
D28*
X65431500Y-126365000D03*
X67156500Y-126365000D03*
D21*
X50292000Y-103175750D03*
X50292000Y-105000750D03*
D16*
X82157999Y-75457199D03*
D17*
X82157999Y-76257199D03*
X82157999Y-77057199D03*
D16*
X82157999Y-77857199D03*
X83957999Y-77857199D03*
D17*
X83957999Y-77057199D03*
X83957999Y-76257199D03*
D16*
X83957999Y-75457199D03*
D15*
X112164500Y-102195000D03*
X110339500Y-102195000D03*
D14*
X121004500Y-78994950D03*
X119279500Y-78994950D03*
D13*
X92963999Y-55997999D03*
X92963999Y-51697999D03*
D21*
X57912000Y-103175750D03*
X57912000Y-105000750D03*
D37*
X117593000Y-66802000D03*
X119643000Y-66802000D03*
D14*
X97636500Y-91186000D03*
X95911500Y-91186000D03*
X63346500Y-126365000D03*
X61621500Y-126365000D03*
D12*
X131099999Y-54500999D03*
X131099999Y-46100999D03*
X135599999Y-54500999D03*
X135599999Y-46100999D03*
D16*
X119771999Y-110927999D03*
D17*
X119771999Y-110127999D03*
X119771999Y-109327999D03*
D16*
X119771999Y-108527999D03*
X117971999Y-108527999D03*
D17*
X117971999Y-109327999D03*
X117971999Y-110127999D03*
D16*
X117971999Y-110927999D03*
D12*
X131099999Y-118499999D03*
X131099999Y-110099999D03*
X135599999Y-118499999D03*
X135599999Y-110099999D03*
D37*
X117593000Y-59690000D03*
X119643000Y-59690000D03*
D25*
X91694000Y-65024000D03*
X91694000Y-66749000D03*
D31*
X127635000Y-83321000D03*
X127635000Y-81271000D03*
D16*
X71684499Y-120963999D03*
D17*
X71684499Y-121763999D03*
X71684499Y-122563999D03*
D16*
X71684499Y-123363999D03*
X73484499Y-123363999D03*
D17*
X73484499Y-122563999D03*
X73484499Y-121763999D03*
D16*
X73484499Y-120963999D03*
D33*
X58674000Y-134387500D03*
X58674000Y-132312500D03*
D12*
X131099999Y-129167999D03*
X131099999Y-120767999D03*
X135599999Y-129167999D03*
X135599999Y-120767999D03*
D43*
X102879000Y-60706000D03*
X100829000Y-60706000D03*
D18*
X97917000Y-69167000D03*
X97917000Y-71242000D03*
D27*
X105388500Y-60706000D03*
X107463500Y-60706000D03*
D26*
X93472000Y-115720500D03*
X93472000Y-113895500D03*
D44*
X67812500Y-118552000D03*
X67812500Y-117602000D03*
X67812500Y-116652000D03*
X65537500Y-116652000D03*
X65537500Y-118552000D03*
D32*
X126697500Y-97602000D03*
X126697500Y-99502000D03*
X128572500Y-98552000D03*
D28*
X87148500Y-75411500D03*
X88873500Y-75411500D03*
D18*
X96520000Y-52810500D03*
X96520000Y-54885500D03*
D21*
X70612000Y-103175750D03*
X70612000Y-105000750D03*
D45*
X93596500Y-77824500D03*
X93596500Y-79099500D03*
X94871500Y-77824500D03*
X94871500Y-79099500D03*
D46*
X90796500Y-75862000D03*
X90796500Y-76262000D03*
X90796500Y-76662000D03*
X90796500Y-77062000D03*
X90796500Y-77462000D03*
X90796500Y-77862000D03*
X90796500Y-78262000D03*
X90796500Y-78662000D03*
X90796500Y-79062000D03*
X90796500Y-79462000D03*
X90796500Y-79862000D03*
X90796500Y-80262000D03*
X90796500Y-80662000D03*
X90796500Y-81062000D03*
D47*
X91634000Y-81899500D03*
X92034000Y-81899500D03*
X92434000Y-81899500D03*
X92834000Y-81899500D03*
X93234000Y-81899500D03*
X93634000Y-81899500D03*
X94034000Y-81899500D03*
X94434000Y-81899500D03*
X94834000Y-81899500D03*
X95234000Y-81899500D03*
X95634000Y-81899500D03*
X96034000Y-81899500D03*
X96434000Y-81899500D03*
X96834000Y-81899500D03*
D46*
X97671500Y-81062000D03*
X97671500Y-80662000D03*
X97671500Y-80262000D03*
X97671500Y-79862000D03*
X97671500Y-79462000D03*
X97671500Y-79062000D03*
X97671500Y-78662000D03*
X97671500Y-78262000D03*
X97671500Y-77862000D03*
X97671500Y-77462000D03*
X97671500Y-77062000D03*
X97671500Y-76662000D03*
X97671500Y-76262000D03*
X97671500Y-75862000D03*
D47*
X96834000Y-75024500D03*
X96434000Y-75024500D03*
X96034000Y-75024500D03*
X95634000Y-75024500D03*
X95234000Y-75024500D03*
X94834000Y-75024500D03*
X94434000Y-75024500D03*
X94034000Y-75024500D03*
X93634000Y-75024500D03*
X93234000Y-75024500D03*
X92834000Y-75024500D03*
X92434000Y-75024500D03*
X92034000Y-75024500D03*
X91634000Y-75024500D03*
D31*
X127635000Y-93998000D03*
X127635000Y-91948000D03*
D42*
X90170000Y-66749000D03*
X90170000Y-65024000D03*
D32*
X121363500Y-52771000D03*
X121363500Y-54671000D03*
X123238500Y-53721000D03*
D11*
X78883500Y-113909000D03*
X78883500Y-115179000D03*
X78883500Y-116449000D03*
X78883500Y-117719000D03*
X83833500Y-117719000D03*
X83833500Y-116449000D03*
X83833500Y-115179000D03*
X83833500Y-113909000D03*
D31*
X127635000Y-61994000D03*
X127635000Y-59944000D03*
D21*
X73152000Y-103175750D03*
X73152000Y-105000750D03*
D14*
X121004500Y-86106950D03*
X119279500Y-86106950D03*
D16*
X49899999Y-66109999D03*
D17*
X49899999Y-66909999D03*
X49899999Y-67709999D03*
D16*
X49899999Y-68509999D03*
X51699999Y-68509999D03*
D17*
X51699999Y-67709999D03*
X51699999Y-66909999D03*
D16*
X51699999Y-66109999D03*
D26*
X82296000Y-91286500D03*
X82296000Y-89461500D03*
D48*
X39406399Y-54311399D03*
X39406399Y-53211399D03*
X39406399Y-52111399D03*
X39406399Y-51011399D03*
X39406399Y-49911399D03*
X39406399Y-48811399D03*
X39406399Y-47711399D03*
D49*
X39406399Y-46661399D03*
D50*
X45556399Y-56946399D03*
X49256399Y-56946399D03*
D51*
X39531399Y-56771399D03*
D52*
X50231399Y-53446399D03*
X50231399Y-47476399D03*
D53*
X39756399Y-45451399D03*
D16*
X128534999Y-66985999D03*
D17*
X128534999Y-66185999D03*
X128534999Y-65385999D03*
D16*
X128534999Y-64585999D03*
X126734999Y-64585999D03*
D17*
X126734999Y-65385999D03*
X126734999Y-66185999D03*
D16*
X126734999Y-66985999D03*
D27*
X65510500Y-114554000D03*
X67585500Y-114554000D03*
D14*
X101319500Y-84582000D03*
X99594500Y-84582000D03*
D28*
X61621500Y-120650000D03*
X63346500Y-120650000D03*
D32*
X126697500Y-129606000D03*
X126697500Y-131506000D03*
X128572500Y-130556000D03*
D27*
X61446500Y-116840000D03*
X63521500Y-116840000D03*
D54*
X61526500Y-127885000D03*
X61526500Y-128535000D03*
X61526500Y-129185000D03*
X61526500Y-129835000D03*
X61526500Y-130485000D03*
X61526500Y-131135000D03*
X61526500Y-131785000D03*
X61526500Y-132435000D03*
X61526500Y-133085000D03*
X61526500Y-133735000D03*
X67251500Y-133735000D03*
X67251500Y-133085000D03*
X67251500Y-132435000D03*
X67251500Y-131785000D03*
X67251500Y-131135000D03*
X67251500Y-130485000D03*
X67251500Y-129835000D03*
X67251500Y-129185000D03*
X67251500Y-128535000D03*
X67251500Y-127885000D03*
D34*
X59690000Y-124460000D03*
X57615000Y-124460000D03*
D42*
X69215000Y-130630000D03*
X69215000Y-128905000D03*
D32*
X77489000Y-121214000D03*
X77489000Y-123114000D03*
X79364000Y-122164000D03*
D15*
X52474500Y-131826000D03*
X50649500Y-131826000D03*
D55*
X46594499Y-72009199D03*
X46594499Y-71509199D03*
X46594499Y-71009199D03*
X46594499Y-70509199D03*
X46594499Y-70009199D03*
X46594499Y-69509199D03*
X46594499Y-69009199D03*
X46594499Y-68509199D03*
X46594499Y-68009199D03*
X46594499Y-67509199D03*
X46594499Y-67009199D03*
X46594499Y-66509199D03*
X46594499Y-66009199D03*
X46594499Y-65509199D03*
X46594499Y-65009199D03*
X46594499Y-64509199D03*
X46594499Y-64009199D03*
X46594499Y-63509199D03*
X46594499Y-63009199D03*
D56*
X109728000Y-57942500D03*
X109728000Y-53817500D03*
D10*
X119229500Y-77216950D03*
X121054500Y-77216950D03*
D21*
X52832000Y-103175750D03*
X52832000Y-105000750D03*
D57*
X83014000Y-68807500D03*
X83014000Y-70077500D03*
X83014000Y-71347500D03*
X83014000Y-72617500D03*
X90214000Y-72617500D03*
X90214000Y-71347500D03*
X90214000Y-70077500D03*
X90214000Y-68807500D03*
D16*
X109103999Y-129145999D03*
D17*
X109103999Y-128345999D03*
X109103999Y-127545999D03*
D16*
X109103999Y-126745999D03*
X107303999Y-126745999D03*
D17*
X107303999Y-127545999D03*
X107303999Y-128345999D03*
D16*
X107303999Y-129145999D03*
D21*
X65532000Y-103175750D03*
X65532000Y-105000750D03*
X118872000Y-52808500D03*
X118872000Y-54633500D03*
M02*
