%FSLAX45Y45*%
G04 Gerber Fmt 4.5, Leading zero omitted, Abs format (unit mm)*
G04 Created by KiCad (PCBNEW (6.99.0-1115-g98f4b1d16c)) date 2022-03-30 22:25:26*
%MOMM*%
%LPD*%
G01*
G04 APERTURE LIST*
%TA.AperFunction,Profile*%
%ADD10C,0.100000*%
%TD*%
%ADD11C,0.200000*%
%ADD12C,0.170000*%
%ADD13C,0.270000*%
G04 APERTURE END LIST*
D10*
X3763000Y-3763000D02*
X13763000Y-3763000D01*
X13763000Y-3763000D02*
X13763000Y-13763000D01*
X13763000Y-13763000D02*
X3763000Y-13763000D01*
X3763000Y-13763000D02*
X3763000Y-3763000D01*
D11*
D12*
X4110000Y-11319600D02*
X4280000Y-11489600D01*
X4280000Y-11319600D02*
X4110000Y-11489600D01*
X4110000Y-12449900D02*
X4280000Y-12619900D01*
X4280000Y-12449900D02*
X4110000Y-12619900D01*
X4810000Y-11319600D02*
X4980000Y-11489600D01*
X4980000Y-11319600D02*
X4810000Y-11489600D01*
X4810000Y-12449900D02*
X4980000Y-12619900D01*
X4980000Y-12449900D02*
X4810000Y-12619900D01*
D11*
X8387000Y-9529500D02*
G75*
G03*
X8387000Y-9529500I-100000J0D01*
G01*
X8387000Y-10409500D02*
G75*
G03*
X8387000Y-10409500I-100000J0D01*
G01*
D13*
X4127500Y-3992500D02*
X4127500Y-4262500D01*
X3992500Y-4127500D02*
X4262500Y-4127500D01*
X4127500Y-13263500D02*
X4127500Y-13533500D01*
X3992500Y-13398500D02*
X4262500Y-13398500D01*
X8763000Y-8628000D02*
X8763000Y-8898000D01*
X8628000Y-8763000D02*
X8898000Y-8763000D01*
X13398500Y-3992500D02*
X13398500Y-4262500D01*
X13263500Y-4127500D02*
X13533500Y-4127500D01*
X13398500Y-13263500D02*
X13398500Y-13533500D01*
X13263500Y-13398500D02*
X13533500Y-13398500D01*
D11*
X4005619Y-14078476D02*
X4005619Y-13878476D01*
X4005619Y-13878476D02*
X4053238Y-13878476D01*
X4053238Y-13878476D02*
X4081809Y-13888000D01*
X4081809Y-13888000D02*
X4100857Y-13907048D01*
X4100857Y-13907048D02*
X4110381Y-13926095D01*
X4110381Y-13926095D02*
X4119905Y-13964190D01*
X4119905Y-13964190D02*
X4119905Y-13992762D01*
X4119905Y-13992762D02*
X4110381Y-14030857D01*
X4110381Y-14030857D02*
X4100857Y-14049905D01*
X4100857Y-14049905D02*
X4081809Y-14068952D01*
X4081809Y-14068952D02*
X4053238Y-14078476D01*
X4053238Y-14078476D02*
X4005619Y-14078476D01*
X4205619Y-14078476D02*
X4205619Y-13945143D01*
X4205619Y-13983238D02*
X4215143Y-13964190D01*
X4215143Y-13964190D02*
X4224667Y-13954667D01*
X4224667Y-13954667D02*
X4243714Y-13945143D01*
X4243714Y-13945143D02*
X4262762Y-13945143D01*
X4329429Y-14078476D02*
X4329429Y-13945143D01*
X4329429Y-13878476D02*
X4319905Y-13888000D01*
X4319905Y-13888000D02*
X4329429Y-13897524D01*
X4329429Y-13897524D02*
X4338952Y-13888000D01*
X4338952Y-13888000D02*
X4329429Y-13878476D01*
X4329429Y-13878476D02*
X4329429Y-13897524D01*
X4453238Y-14078476D02*
X4434190Y-14068952D01*
X4434190Y-14068952D02*
X4424667Y-14049905D01*
X4424667Y-14049905D02*
X4424667Y-13878476D01*
X4558000Y-14078476D02*
X4538952Y-14068952D01*
X4538952Y-14068952D02*
X4529429Y-14049905D01*
X4529429Y-14049905D02*
X4529429Y-13878476D01*
X4754190Y-14078476D02*
X4754190Y-13878476D01*
X4754190Y-13878476D02*
X4820857Y-14021333D01*
X4820857Y-14021333D02*
X4887524Y-13878476D01*
X4887524Y-13878476D02*
X4887524Y-14078476D01*
X5068476Y-14078476D02*
X5068476Y-13973714D01*
X5068476Y-13973714D02*
X5058952Y-13954667D01*
X5058952Y-13954667D02*
X5039905Y-13945143D01*
X5039905Y-13945143D02*
X5001809Y-13945143D01*
X5001809Y-13945143D02*
X4982762Y-13954667D01*
X5068476Y-14068952D02*
X5049429Y-14078476D01*
X5049429Y-14078476D02*
X5001809Y-14078476D01*
X5001809Y-14078476D02*
X4982762Y-14068952D01*
X4982762Y-14068952D02*
X4973238Y-14049905D01*
X4973238Y-14049905D02*
X4973238Y-14030857D01*
X4973238Y-14030857D02*
X4982762Y-14011809D01*
X4982762Y-14011809D02*
X5001809Y-14002286D01*
X5001809Y-14002286D02*
X5049429Y-14002286D01*
X5049429Y-14002286D02*
X5068476Y-13992762D01*
X5163714Y-13945143D02*
X5163714Y-14145143D01*
X5163714Y-13954667D02*
X5182762Y-13945143D01*
X5182762Y-13945143D02*
X5220857Y-13945143D01*
X5220857Y-13945143D02*
X5239905Y-13954667D01*
X5239905Y-13954667D02*
X5249429Y-13964190D01*
X5249429Y-13964190D02*
X5258952Y-13983238D01*
X5258952Y-13983238D02*
X5258952Y-14040381D01*
X5258952Y-14040381D02*
X5249429Y-14059428D01*
X5249429Y-14059428D02*
X5239905Y-14068952D01*
X5239905Y-14068952D02*
X5220857Y-14078476D01*
X5220857Y-14078476D02*
X5182762Y-14078476D01*
X5182762Y-14078476D02*
X5163714Y-14068952D01*
X5344667Y-14059428D02*
X5354190Y-14068952D01*
X5354190Y-14068952D02*
X5344667Y-14078476D01*
X5344667Y-14078476D02*
X5335143Y-14068952D01*
X5335143Y-14068952D02*
X5344667Y-14059428D01*
X5344667Y-14059428D02*
X5344667Y-14078476D01*
X5344667Y-13954667D02*
X5354190Y-13964190D01*
X5354190Y-13964190D02*
X5344667Y-13973714D01*
X5344667Y-13973714D02*
X5335143Y-13964190D01*
X5335143Y-13964190D02*
X5344667Y-13954667D01*
X5344667Y-13954667D02*
X5344667Y-13973714D01*
D12*
X3588000Y-14323000D02*
X3758000Y-14493000D01*
X3758000Y-14323000D02*
X3588000Y-14493000D01*
D11*
X4110381Y-14498476D02*
X3996095Y-14498476D01*
X4053238Y-14498476D02*
X4053238Y-14298476D01*
X4053238Y-14298476D02*
X4034190Y-14327048D01*
X4034190Y-14327048D02*
X4015143Y-14346095D01*
X4015143Y-14346095D02*
X3996095Y-14355619D01*
X4196095Y-14479428D02*
X4205619Y-14488952D01*
X4205619Y-14488952D02*
X4196095Y-14498476D01*
X4196095Y-14498476D02*
X4186571Y-14488952D01*
X4186571Y-14488952D02*
X4196095Y-14479428D01*
X4196095Y-14479428D02*
X4196095Y-14498476D01*
X4272286Y-14298476D02*
X4405619Y-14298476D01*
X4405619Y-14298476D02*
X4319905Y-14498476D01*
X4519905Y-14298476D02*
X4538952Y-14298476D01*
X4538952Y-14298476D02*
X4558000Y-14308000D01*
X4558000Y-14308000D02*
X4567524Y-14317524D01*
X4567524Y-14317524D02*
X4577048Y-14336571D01*
X4577048Y-14336571D02*
X4586571Y-14374667D01*
X4586571Y-14374667D02*
X4586571Y-14422286D01*
X4586571Y-14422286D02*
X4577048Y-14460381D01*
X4577048Y-14460381D02*
X4567524Y-14479428D01*
X4567524Y-14479428D02*
X4558000Y-14488952D01*
X4558000Y-14488952D02*
X4538952Y-14498476D01*
X4538952Y-14498476D02*
X4519905Y-14498476D01*
X4519905Y-14498476D02*
X4500857Y-14488952D01*
X4500857Y-14488952D02*
X4491333Y-14479428D01*
X4491333Y-14479428D02*
X4481810Y-14460381D01*
X4481810Y-14460381D02*
X4472286Y-14422286D01*
X4472286Y-14422286D02*
X4472286Y-14374667D01*
X4472286Y-14374667D02*
X4481810Y-14336571D01*
X4481810Y-14336571D02*
X4491333Y-14317524D01*
X4491333Y-14317524D02*
X4500857Y-14308000D01*
X4500857Y-14308000D02*
X4519905Y-14298476D01*
X4710381Y-14298476D02*
X4729429Y-14298476D01*
X4729429Y-14298476D02*
X4748476Y-14308000D01*
X4748476Y-14308000D02*
X4758000Y-14317524D01*
X4758000Y-14317524D02*
X4767524Y-14336571D01*
X4767524Y-14336571D02*
X4777048Y-14374667D01*
X4777048Y-14374667D02*
X4777048Y-14422286D01*
X4777048Y-14422286D02*
X4767524Y-14460381D01*
X4767524Y-14460381D02*
X4758000Y-14479428D01*
X4758000Y-14479428D02*
X4748476Y-14488952D01*
X4748476Y-14488952D02*
X4729429Y-14498476D01*
X4729429Y-14498476D02*
X4710381Y-14498476D01*
X4710381Y-14498476D02*
X4691333Y-14488952D01*
X4691333Y-14488952D02*
X4681810Y-14479428D01*
X4681810Y-14479428D02*
X4672286Y-14460381D01*
X4672286Y-14460381D02*
X4662762Y-14422286D01*
X4662762Y-14422286D02*
X4662762Y-14374667D01*
X4662762Y-14374667D02*
X4672286Y-14336571D01*
X4672286Y-14336571D02*
X4681810Y-14317524D01*
X4681810Y-14317524D02*
X4691333Y-14308000D01*
X4691333Y-14308000D02*
X4710381Y-14298476D01*
X4862762Y-14498476D02*
X4862762Y-14365143D01*
X4862762Y-14384190D02*
X4872286Y-14374667D01*
X4872286Y-14374667D02*
X4891333Y-14365143D01*
X4891333Y-14365143D02*
X4919905Y-14365143D01*
X4919905Y-14365143D02*
X4938952Y-14374667D01*
X4938952Y-14374667D02*
X4948476Y-14393714D01*
X4948476Y-14393714D02*
X4948476Y-14498476D01*
X4948476Y-14393714D02*
X4958000Y-14374667D01*
X4958000Y-14374667D02*
X4977048Y-14365143D01*
X4977048Y-14365143D02*
X5005619Y-14365143D01*
X5005619Y-14365143D02*
X5024667Y-14374667D01*
X5024667Y-14374667D02*
X5034191Y-14393714D01*
X5034191Y-14393714D02*
X5034191Y-14498476D01*
X5129429Y-14498476D02*
X5129429Y-14365143D01*
X5129429Y-14384190D02*
X5138952Y-14374667D01*
X5138952Y-14374667D02*
X5158000Y-14365143D01*
X5158000Y-14365143D02*
X5186572Y-14365143D01*
X5186572Y-14365143D02*
X5205619Y-14374667D01*
X5205619Y-14374667D02*
X5215143Y-14393714D01*
X5215143Y-14393714D02*
X5215143Y-14498476D01*
X5215143Y-14393714D02*
X5224667Y-14374667D01*
X5224667Y-14374667D02*
X5243714Y-14365143D01*
X5243714Y-14365143D02*
X5272286Y-14365143D01*
X5272286Y-14365143D02*
X5291333Y-14374667D01*
X5291333Y-14374667D02*
X5300857Y-14393714D01*
X5300857Y-14393714D02*
X5300857Y-14498476D01*
X5658952Y-14288952D02*
X5487524Y-14546095D01*
X5883714Y-14298476D02*
X5902762Y-14298476D01*
X5902762Y-14298476D02*
X5921810Y-14308000D01*
X5921810Y-14308000D02*
X5931333Y-14317524D01*
X5931333Y-14317524D02*
X5940857Y-14336571D01*
X5940857Y-14336571D02*
X5950381Y-14374667D01*
X5950381Y-14374667D02*
X5950381Y-14422286D01*
X5950381Y-14422286D02*
X5940857Y-14460381D01*
X5940857Y-14460381D02*
X5931333Y-14479428D01*
X5931333Y-14479428D02*
X5921810Y-14488952D01*
X5921810Y-14488952D02*
X5902762Y-14498476D01*
X5902762Y-14498476D02*
X5883714Y-14498476D01*
X5883714Y-14498476D02*
X5864667Y-14488952D01*
X5864667Y-14488952D02*
X5855143Y-14479428D01*
X5855143Y-14479428D02*
X5845619Y-14460381D01*
X5845619Y-14460381D02*
X5836095Y-14422286D01*
X5836095Y-14422286D02*
X5836095Y-14374667D01*
X5836095Y-14374667D02*
X5845619Y-14336571D01*
X5845619Y-14336571D02*
X5855143Y-14317524D01*
X5855143Y-14317524D02*
X5864667Y-14308000D01*
X5864667Y-14308000D02*
X5883714Y-14298476D01*
X6036095Y-14479428D02*
X6045619Y-14488952D01*
X6045619Y-14488952D02*
X6036095Y-14498476D01*
X6036095Y-14498476D02*
X6026571Y-14488952D01*
X6026571Y-14488952D02*
X6036095Y-14479428D01*
X6036095Y-14479428D02*
X6036095Y-14498476D01*
X6169429Y-14298476D02*
X6188476Y-14298476D01*
X6188476Y-14298476D02*
X6207524Y-14308000D01*
X6207524Y-14308000D02*
X6217048Y-14317524D01*
X6217048Y-14317524D02*
X6226571Y-14336571D01*
X6226571Y-14336571D02*
X6236095Y-14374667D01*
X6236095Y-14374667D02*
X6236095Y-14422286D01*
X6236095Y-14422286D02*
X6226571Y-14460381D01*
X6226571Y-14460381D02*
X6217048Y-14479428D01*
X6217048Y-14479428D02*
X6207524Y-14488952D01*
X6207524Y-14488952D02*
X6188476Y-14498476D01*
X6188476Y-14498476D02*
X6169429Y-14498476D01*
X6169429Y-14498476D02*
X6150381Y-14488952D01*
X6150381Y-14488952D02*
X6140857Y-14479428D01*
X6140857Y-14479428D02*
X6131333Y-14460381D01*
X6131333Y-14460381D02*
X6121810Y-14422286D01*
X6121810Y-14422286D02*
X6121810Y-14374667D01*
X6121810Y-14374667D02*
X6131333Y-14336571D01*
X6131333Y-14336571D02*
X6140857Y-14317524D01*
X6140857Y-14317524D02*
X6150381Y-14308000D01*
X6150381Y-14308000D02*
X6169429Y-14298476D01*
X6407524Y-14298476D02*
X6369429Y-14298476D01*
X6369429Y-14298476D02*
X6350381Y-14308000D01*
X6350381Y-14308000D02*
X6340857Y-14317524D01*
X6340857Y-14317524D02*
X6321810Y-14346095D01*
X6321810Y-14346095D02*
X6312286Y-14384190D01*
X6312286Y-14384190D02*
X6312286Y-14460381D01*
X6312286Y-14460381D02*
X6321810Y-14479428D01*
X6321810Y-14479428D02*
X6331333Y-14488952D01*
X6331333Y-14488952D02*
X6350381Y-14498476D01*
X6350381Y-14498476D02*
X6388476Y-14498476D01*
X6388476Y-14498476D02*
X6407524Y-14488952D01*
X6407524Y-14488952D02*
X6417048Y-14479428D01*
X6417048Y-14479428D02*
X6426571Y-14460381D01*
X6426571Y-14460381D02*
X6426571Y-14412762D01*
X6426571Y-14412762D02*
X6417048Y-14393714D01*
X6417048Y-14393714D02*
X6407524Y-14384190D01*
X6407524Y-14384190D02*
X6388476Y-14374667D01*
X6388476Y-14374667D02*
X6350381Y-14374667D01*
X6350381Y-14374667D02*
X6331333Y-14384190D01*
X6331333Y-14384190D02*
X6321810Y-14393714D01*
X6321810Y-14393714D02*
X6312286Y-14412762D01*
X6598000Y-14298476D02*
X6559905Y-14298476D01*
X6559905Y-14298476D02*
X6540857Y-14308000D01*
X6540857Y-14308000D02*
X6531333Y-14317524D01*
X6531333Y-14317524D02*
X6512286Y-14346095D01*
X6512286Y-14346095D02*
X6502762Y-14384190D01*
X6502762Y-14384190D02*
X6502762Y-14460381D01*
X6502762Y-14460381D02*
X6512286Y-14479428D01*
X6512286Y-14479428D02*
X6521810Y-14488952D01*
X6521810Y-14488952D02*
X6540857Y-14498476D01*
X6540857Y-14498476D02*
X6578952Y-14498476D01*
X6578952Y-14498476D02*
X6598000Y-14488952D01*
X6598000Y-14488952D02*
X6607524Y-14479428D01*
X6607524Y-14479428D02*
X6617048Y-14460381D01*
X6617048Y-14460381D02*
X6617048Y-14412762D01*
X6617048Y-14412762D02*
X6607524Y-14393714D01*
X6607524Y-14393714D02*
X6598000Y-14384190D01*
X6598000Y-14384190D02*
X6578952Y-14374667D01*
X6578952Y-14374667D02*
X6540857Y-14374667D01*
X6540857Y-14374667D02*
X6521810Y-14384190D01*
X6521810Y-14384190D02*
X6512286Y-14393714D01*
X6512286Y-14393714D02*
X6502762Y-14412762D01*
X6712286Y-14498476D02*
X6750381Y-14498476D01*
X6750381Y-14498476D02*
X6769429Y-14488952D01*
X6769429Y-14488952D02*
X6778952Y-14479428D01*
X6778952Y-14479428D02*
X6798000Y-14450857D01*
X6798000Y-14450857D02*
X6807524Y-14412762D01*
X6807524Y-14412762D02*
X6807524Y-14336571D01*
X6807524Y-14336571D02*
X6798000Y-14317524D01*
X6798000Y-14317524D02*
X6788476Y-14308000D01*
X6788476Y-14308000D02*
X6769429Y-14298476D01*
X6769429Y-14298476D02*
X6731333Y-14298476D01*
X6731333Y-14298476D02*
X6712286Y-14308000D01*
X6712286Y-14308000D02*
X6702762Y-14317524D01*
X6702762Y-14317524D02*
X6693238Y-14336571D01*
X6693238Y-14336571D02*
X6693238Y-14384190D01*
X6693238Y-14384190D02*
X6702762Y-14403238D01*
X6702762Y-14403238D02*
X6712286Y-14412762D01*
X6712286Y-14412762D02*
X6731333Y-14422286D01*
X6731333Y-14422286D02*
X6769429Y-14422286D01*
X6769429Y-14422286D02*
X6788476Y-14412762D01*
X6788476Y-14412762D02*
X6798000Y-14403238D01*
X6798000Y-14403238D02*
X6807524Y-14384190D01*
X6883714Y-14298476D02*
X6883714Y-14336571D01*
X6959905Y-14298476D02*
X6959905Y-14336571D01*
X7222762Y-14574667D02*
X7213238Y-14565143D01*
X7213238Y-14565143D02*
X7194191Y-14536571D01*
X7194191Y-14536571D02*
X7184667Y-14517524D01*
X7184667Y-14517524D02*
X7175143Y-14488952D01*
X7175143Y-14488952D02*
X7165619Y-14441333D01*
X7165619Y-14441333D02*
X7165619Y-14403238D01*
X7165619Y-14403238D02*
X7175143Y-14355619D01*
X7175143Y-14355619D02*
X7184667Y-14327048D01*
X7184667Y-14327048D02*
X7194191Y-14308000D01*
X7194191Y-14308000D02*
X7213238Y-14279428D01*
X7213238Y-14279428D02*
X7222762Y-14269905D01*
X7384667Y-14365143D02*
X7384667Y-14498476D01*
X7337048Y-14288952D02*
X7289429Y-14431809D01*
X7289429Y-14431809D02*
X7413238Y-14431809D01*
X7609429Y-14498476D02*
X7609429Y-14298476D01*
X7695143Y-14498476D02*
X7695143Y-14393714D01*
X7695143Y-14393714D02*
X7685619Y-14374667D01*
X7685619Y-14374667D02*
X7666572Y-14365143D01*
X7666572Y-14365143D02*
X7638000Y-14365143D01*
X7638000Y-14365143D02*
X7618952Y-14374667D01*
X7618952Y-14374667D02*
X7609429Y-14384190D01*
X7818952Y-14498476D02*
X7799905Y-14488952D01*
X7799905Y-14488952D02*
X7790381Y-14479428D01*
X7790381Y-14479428D02*
X7780857Y-14460381D01*
X7780857Y-14460381D02*
X7780857Y-14403238D01*
X7780857Y-14403238D02*
X7790381Y-14384190D01*
X7790381Y-14384190D02*
X7799905Y-14374667D01*
X7799905Y-14374667D02*
X7818952Y-14365143D01*
X7818952Y-14365143D02*
X7847524Y-14365143D01*
X7847524Y-14365143D02*
X7866572Y-14374667D01*
X7866572Y-14374667D02*
X7876095Y-14384190D01*
X7876095Y-14384190D02*
X7885619Y-14403238D01*
X7885619Y-14403238D02*
X7885619Y-14460381D01*
X7885619Y-14460381D02*
X7876095Y-14479428D01*
X7876095Y-14479428D02*
X7866572Y-14488952D01*
X7866572Y-14488952D02*
X7847524Y-14498476D01*
X7847524Y-14498476D02*
X7818952Y-14498476D01*
X7999905Y-14498476D02*
X7980857Y-14488952D01*
X7980857Y-14488952D02*
X7971333Y-14469905D01*
X7971333Y-14469905D02*
X7971333Y-14298476D01*
X8152286Y-14488952D02*
X8133238Y-14498476D01*
X8133238Y-14498476D02*
X8095143Y-14498476D01*
X8095143Y-14498476D02*
X8076095Y-14488952D01*
X8076095Y-14488952D02*
X8066572Y-14469905D01*
X8066572Y-14469905D02*
X8066572Y-14393714D01*
X8066572Y-14393714D02*
X8076095Y-14374667D01*
X8076095Y-14374667D02*
X8095143Y-14365143D01*
X8095143Y-14365143D02*
X8133238Y-14365143D01*
X8133238Y-14365143D02*
X8152286Y-14374667D01*
X8152286Y-14374667D02*
X8161810Y-14393714D01*
X8161810Y-14393714D02*
X8161810Y-14412762D01*
X8161810Y-14412762D02*
X8066572Y-14431809D01*
X8238000Y-14488952D02*
X8257048Y-14498476D01*
X8257048Y-14498476D02*
X8295143Y-14498476D01*
X8295143Y-14498476D02*
X8314191Y-14488952D01*
X8314191Y-14488952D02*
X8323714Y-14469905D01*
X8323714Y-14469905D02*
X8323714Y-14460381D01*
X8323714Y-14460381D02*
X8314191Y-14441333D01*
X8314191Y-14441333D02*
X8295143Y-14431809D01*
X8295143Y-14431809D02*
X8266572Y-14431809D01*
X8266572Y-14431809D02*
X8247524Y-14422286D01*
X8247524Y-14422286D02*
X8238000Y-14403238D01*
X8238000Y-14403238D02*
X8238000Y-14393714D01*
X8238000Y-14393714D02*
X8247524Y-14374667D01*
X8247524Y-14374667D02*
X8266572Y-14365143D01*
X8266572Y-14365143D02*
X8295143Y-14365143D01*
X8295143Y-14365143D02*
X8314191Y-14374667D01*
X8390381Y-14574667D02*
X8399905Y-14565143D01*
X8399905Y-14565143D02*
X8418953Y-14536571D01*
X8418953Y-14536571D02*
X8428476Y-14517524D01*
X8428476Y-14517524D02*
X8438000Y-14488952D01*
X8438000Y-14488952D02*
X8447524Y-14441333D01*
X8447524Y-14441333D02*
X8447524Y-14403238D01*
X8447524Y-14403238D02*
X8438000Y-14355619D01*
X8438000Y-14355619D02*
X8428476Y-14327048D01*
X8428476Y-14327048D02*
X8418953Y-14308000D01*
X8418953Y-14308000D02*
X8399905Y-14279428D01*
X8399905Y-14279428D02*
X8390381Y-14269905D01*
X8719905Y-14574667D02*
X8710381Y-14565143D01*
X8710381Y-14565143D02*
X8691334Y-14536571D01*
X8691334Y-14536571D02*
X8681810Y-14517524D01*
X8681810Y-14517524D02*
X8672286Y-14488952D01*
X8672286Y-14488952D02*
X8662762Y-14441333D01*
X8662762Y-14441333D02*
X8662762Y-14403238D01*
X8662762Y-14403238D02*
X8672286Y-14355619D01*
X8672286Y-14355619D02*
X8681810Y-14327048D01*
X8681810Y-14327048D02*
X8691334Y-14308000D01*
X8691334Y-14308000D02*
X8710381Y-14279428D01*
X8710381Y-14279428D02*
X8719905Y-14269905D01*
X8796095Y-14365143D02*
X8796095Y-14498476D01*
X8796095Y-14384190D02*
X8805619Y-14374667D01*
X8805619Y-14374667D02*
X8824667Y-14365143D01*
X8824667Y-14365143D02*
X8853238Y-14365143D01*
X8853238Y-14365143D02*
X8872286Y-14374667D01*
X8872286Y-14374667D02*
X8881810Y-14393714D01*
X8881810Y-14393714D02*
X8881810Y-14498476D01*
X9005619Y-14498476D02*
X8986572Y-14488952D01*
X8986572Y-14488952D02*
X8977048Y-14479428D01*
X8977048Y-14479428D02*
X8967524Y-14460381D01*
X8967524Y-14460381D02*
X8967524Y-14403238D01*
X8967524Y-14403238D02*
X8977048Y-14384190D01*
X8977048Y-14384190D02*
X8986572Y-14374667D01*
X8986572Y-14374667D02*
X9005619Y-14365143D01*
X9005619Y-14365143D02*
X9034191Y-14365143D01*
X9034191Y-14365143D02*
X9053238Y-14374667D01*
X9053238Y-14374667D02*
X9062762Y-14384190D01*
X9062762Y-14384190D02*
X9072286Y-14403238D01*
X9072286Y-14403238D02*
X9072286Y-14460381D01*
X9072286Y-14460381D02*
X9062762Y-14479428D01*
X9062762Y-14479428D02*
X9053238Y-14488952D01*
X9053238Y-14488952D02*
X9034191Y-14498476D01*
X9034191Y-14498476D02*
X9005619Y-14498476D01*
X9129429Y-14365143D02*
X9205619Y-14365143D01*
X9158000Y-14298476D02*
X9158000Y-14469905D01*
X9158000Y-14469905D02*
X9167524Y-14488952D01*
X9167524Y-14488952D02*
X9186572Y-14498476D01*
X9186572Y-14498476D02*
X9205619Y-14498476D01*
X9392286Y-14365143D02*
X9392286Y-14565143D01*
X9392286Y-14374667D02*
X9411334Y-14365143D01*
X9411334Y-14365143D02*
X9449429Y-14365143D01*
X9449429Y-14365143D02*
X9468476Y-14374667D01*
X9468476Y-14374667D02*
X9478000Y-14384190D01*
X9478000Y-14384190D02*
X9487524Y-14403238D01*
X9487524Y-14403238D02*
X9487524Y-14460381D01*
X9487524Y-14460381D02*
X9478000Y-14479428D01*
X9478000Y-14479428D02*
X9468476Y-14488952D01*
X9468476Y-14488952D02*
X9449429Y-14498476D01*
X9449429Y-14498476D02*
X9411334Y-14498476D01*
X9411334Y-14498476D02*
X9392286Y-14488952D01*
X9601810Y-14498476D02*
X9582762Y-14488952D01*
X9582762Y-14488952D02*
X9573238Y-14469905D01*
X9573238Y-14469905D02*
X9573238Y-14298476D01*
X9763715Y-14498476D02*
X9763715Y-14393714D01*
X9763715Y-14393714D02*
X9754191Y-14374667D01*
X9754191Y-14374667D02*
X9735143Y-14365143D01*
X9735143Y-14365143D02*
X9697048Y-14365143D01*
X9697048Y-14365143D02*
X9678000Y-14374667D01*
X9763715Y-14488952D02*
X9744667Y-14498476D01*
X9744667Y-14498476D02*
X9697048Y-14498476D01*
X9697048Y-14498476D02*
X9678000Y-14488952D01*
X9678000Y-14488952D02*
X9668476Y-14469905D01*
X9668476Y-14469905D02*
X9668476Y-14450857D01*
X9668476Y-14450857D02*
X9678000Y-14431809D01*
X9678000Y-14431809D02*
X9697048Y-14422286D01*
X9697048Y-14422286D02*
X9744667Y-14422286D01*
X9744667Y-14422286D02*
X9763715Y-14412762D01*
X9830381Y-14365143D02*
X9906572Y-14365143D01*
X9858953Y-14298476D02*
X9858953Y-14469905D01*
X9858953Y-14469905D02*
X9868476Y-14488952D01*
X9868476Y-14488952D02*
X9887524Y-14498476D01*
X9887524Y-14498476D02*
X9906572Y-14498476D01*
X10049429Y-14488952D02*
X10030381Y-14498476D01*
X10030381Y-14498476D02*
X9992286Y-14498476D01*
X9992286Y-14498476D02*
X9973238Y-14488952D01*
X9973238Y-14488952D02*
X9963715Y-14469905D01*
X9963715Y-14469905D02*
X9963715Y-14393714D01*
X9963715Y-14393714D02*
X9973238Y-14374667D01*
X9973238Y-14374667D02*
X9992286Y-14365143D01*
X9992286Y-14365143D02*
X10030381Y-14365143D01*
X10030381Y-14365143D02*
X10049429Y-14374667D01*
X10049429Y-14374667D02*
X10058953Y-14393714D01*
X10058953Y-14393714D02*
X10058953Y-14412762D01*
X10058953Y-14412762D02*
X9963715Y-14431809D01*
X10230381Y-14498476D02*
X10230381Y-14298476D01*
X10230381Y-14488952D02*
X10211334Y-14498476D01*
X10211334Y-14498476D02*
X10173238Y-14498476D01*
X10173238Y-14498476D02*
X10154191Y-14488952D01*
X10154191Y-14488952D02*
X10144667Y-14479428D01*
X10144667Y-14479428D02*
X10135143Y-14460381D01*
X10135143Y-14460381D02*
X10135143Y-14403238D01*
X10135143Y-14403238D02*
X10144667Y-14384190D01*
X10144667Y-14384190D02*
X10154191Y-14374667D01*
X10154191Y-14374667D02*
X10173238Y-14365143D01*
X10173238Y-14365143D02*
X10211334Y-14365143D01*
X10211334Y-14365143D02*
X10230381Y-14374667D01*
X10306572Y-14574667D02*
X10316096Y-14565143D01*
X10316096Y-14565143D02*
X10335143Y-14536571D01*
X10335143Y-14536571D02*
X10344667Y-14517524D01*
X10344667Y-14517524D02*
X10354191Y-14488952D01*
X10354191Y-14488952D02*
X10363715Y-14441333D01*
X10363715Y-14441333D02*
X10363715Y-14403238D01*
X10363715Y-14403238D02*
X10354191Y-14355619D01*
X10354191Y-14355619D02*
X10344667Y-14327048D01*
X10344667Y-14327048D02*
X10335143Y-14308000D01*
X10335143Y-14308000D02*
X10316096Y-14279428D01*
X10316096Y-14279428D02*
X10306572Y-14269905D01*
X3758000Y-14698000D02*
G75*
G03*
X3758000Y-14698000I-100000J0D01*
G01*
X3996095Y-14607524D02*
X4005619Y-14598000D01*
X4005619Y-14598000D02*
X4024667Y-14588476D01*
X4024667Y-14588476D02*
X4072286Y-14588476D01*
X4072286Y-14588476D02*
X4091333Y-14598000D01*
X4091333Y-14598000D02*
X4100857Y-14607524D01*
X4100857Y-14607524D02*
X4110381Y-14626571D01*
X4110381Y-14626571D02*
X4110381Y-14645619D01*
X4110381Y-14645619D02*
X4100857Y-14674190D01*
X4100857Y-14674190D02*
X3986571Y-14788476D01*
X3986571Y-14788476D02*
X4110381Y-14788476D01*
X4196095Y-14769428D02*
X4205619Y-14778952D01*
X4205619Y-14778952D02*
X4196095Y-14788476D01*
X4196095Y-14788476D02*
X4186571Y-14778952D01*
X4186571Y-14778952D02*
X4196095Y-14769428D01*
X4196095Y-14769428D02*
X4196095Y-14788476D01*
X4329429Y-14588476D02*
X4348476Y-14588476D01*
X4348476Y-14588476D02*
X4367524Y-14598000D01*
X4367524Y-14598000D02*
X4377048Y-14607524D01*
X4377048Y-14607524D02*
X4386571Y-14626571D01*
X4386571Y-14626571D02*
X4396095Y-14664667D01*
X4396095Y-14664667D02*
X4396095Y-14712286D01*
X4396095Y-14712286D02*
X4386571Y-14750381D01*
X4386571Y-14750381D02*
X4377048Y-14769428D01*
X4377048Y-14769428D02*
X4367524Y-14778952D01*
X4367524Y-14778952D02*
X4348476Y-14788476D01*
X4348476Y-14788476D02*
X4329429Y-14788476D01*
X4329429Y-14788476D02*
X4310381Y-14778952D01*
X4310381Y-14778952D02*
X4300857Y-14769428D01*
X4300857Y-14769428D02*
X4291333Y-14750381D01*
X4291333Y-14750381D02*
X4281810Y-14712286D01*
X4281810Y-14712286D02*
X4281810Y-14664667D01*
X4281810Y-14664667D02*
X4291333Y-14626571D01*
X4291333Y-14626571D02*
X4300857Y-14607524D01*
X4300857Y-14607524D02*
X4310381Y-14598000D01*
X4310381Y-14598000D02*
X4329429Y-14588476D01*
X4519905Y-14588476D02*
X4538952Y-14588476D01*
X4538952Y-14588476D02*
X4558000Y-14598000D01*
X4558000Y-14598000D02*
X4567524Y-14607524D01*
X4567524Y-14607524D02*
X4577048Y-14626571D01*
X4577048Y-14626571D02*
X4586571Y-14664667D01*
X4586571Y-14664667D02*
X4586571Y-14712286D01*
X4586571Y-14712286D02*
X4577048Y-14750381D01*
X4577048Y-14750381D02*
X4567524Y-14769428D01*
X4567524Y-14769428D02*
X4558000Y-14778952D01*
X4558000Y-14778952D02*
X4538952Y-14788476D01*
X4538952Y-14788476D02*
X4519905Y-14788476D01*
X4519905Y-14788476D02*
X4500857Y-14778952D01*
X4500857Y-14778952D02*
X4491333Y-14769428D01*
X4491333Y-14769428D02*
X4481810Y-14750381D01*
X4481810Y-14750381D02*
X4472286Y-14712286D01*
X4472286Y-14712286D02*
X4472286Y-14664667D01*
X4472286Y-14664667D02*
X4481810Y-14626571D01*
X4481810Y-14626571D02*
X4491333Y-14607524D01*
X4491333Y-14607524D02*
X4500857Y-14598000D01*
X4500857Y-14598000D02*
X4519905Y-14588476D01*
X4710381Y-14588476D02*
X4729429Y-14588476D01*
X4729429Y-14588476D02*
X4748476Y-14598000D01*
X4748476Y-14598000D02*
X4758000Y-14607524D01*
X4758000Y-14607524D02*
X4767524Y-14626571D01*
X4767524Y-14626571D02*
X4777048Y-14664667D01*
X4777048Y-14664667D02*
X4777048Y-14712286D01*
X4777048Y-14712286D02*
X4767524Y-14750381D01*
X4767524Y-14750381D02*
X4758000Y-14769428D01*
X4758000Y-14769428D02*
X4748476Y-14778952D01*
X4748476Y-14778952D02*
X4729429Y-14788476D01*
X4729429Y-14788476D02*
X4710381Y-14788476D01*
X4710381Y-14788476D02*
X4691333Y-14778952D01*
X4691333Y-14778952D02*
X4681810Y-14769428D01*
X4681810Y-14769428D02*
X4672286Y-14750381D01*
X4672286Y-14750381D02*
X4662762Y-14712286D01*
X4662762Y-14712286D02*
X4662762Y-14664667D01*
X4662762Y-14664667D02*
X4672286Y-14626571D01*
X4672286Y-14626571D02*
X4681810Y-14607524D01*
X4681810Y-14607524D02*
X4691333Y-14598000D01*
X4691333Y-14598000D02*
X4710381Y-14588476D01*
X4862762Y-14788476D02*
X4862762Y-14655143D01*
X4862762Y-14674190D02*
X4872286Y-14664667D01*
X4872286Y-14664667D02*
X4891333Y-14655143D01*
X4891333Y-14655143D02*
X4919905Y-14655143D01*
X4919905Y-14655143D02*
X4938952Y-14664667D01*
X4938952Y-14664667D02*
X4948476Y-14683714D01*
X4948476Y-14683714D02*
X4948476Y-14788476D01*
X4948476Y-14683714D02*
X4958000Y-14664667D01*
X4958000Y-14664667D02*
X4977048Y-14655143D01*
X4977048Y-14655143D02*
X5005619Y-14655143D01*
X5005619Y-14655143D02*
X5024667Y-14664667D01*
X5024667Y-14664667D02*
X5034191Y-14683714D01*
X5034191Y-14683714D02*
X5034191Y-14788476D01*
X5129429Y-14788476D02*
X5129429Y-14655143D01*
X5129429Y-14674190D02*
X5138952Y-14664667D01*
X5138952Y-14664667D02*
X5158000Y-14655143D01*
X5158000Y-14655143D02*
X5186572Y-14655143D01*
X5186572Y-14655143D02*
X5205619Y-14664667D01*
X5205619Y-14664667D02*
X5215143Y-14683714D01*
X5215143Y-14683714D02*
X5215143Y-14788476D01*
X5215143Y-14683714D02*
X5224667Y-14664667D01*
X5224667Y-14664667D02*
X5243714Y-14655143D01*
X5243714Y-14655143D02*
X5272286Y-14655143D01*
X5272286Y-14655143D02*
X5291333Y-14664667D01*
X5291333Y-14664667D02*
X5300857Y-14683714D01*
X5300857Y-14683714D02*
X5300857Y-14788476D01*
X5658952Y-14578952D02*
X5487524Y-14836095D01*
X5883714Y-14588476D02*
X5902762Y-14588476D01*
X5902762Y-14588476D02*
X5921810Y-14598000D01*
X5921810Y-14598000D02*
X5931333Y-14607524D01*
X5931333Y-14607524D02*
X5940857Y-14626571D01*
X5940857Y-14626571D02*
X5950381Y-14664667D01*
X5950381Y-14664667D02*
X5950381Y-14712286D01*
X5950381Y-14712286D02*
X5940857Y-14750381D01*
X5940857Y-14750381D02*
X5931333Y-14769428D01*
X5931333Y-14769428D02*
X5921810Y-14778952D01*
X5921810Y-14778952D02*
X5902762Y-14788476D01*
X5902762Y-14788476D02*
X5883714Y-14788476D01*
X5883714Y-14788476D02*
X5864667Y-14778952D01*
X5864667Y-14778952D02*
X5855143Y-14769428D01*
X5855143Y-14769428D02*
X5845619Y-14750381D01*
X5845619Y-14750381D02*
X5836095Y-14712286D01*
X5836095Y-14712286D02*
X5836095Y-14664667D01*
X5836095Y-14664667D02*
X5845619Y-14626571D01*
X5845619Y-14626571D02*
X5855143Y-14607524D01*
X5855143Y-14607524D02*
X5864667Y-14598000D01*
X5864667Y-14598000D02*
X5883714Y-14588476D01*
X6036095Y-14769428D02*
X6045619Y-14778952D01*
X6045619Y-14778952D02*
X6036095Y-14788476D01*
X6036095Y-14788476D02*
X6026571Y-14778952D01*
X6026571Y-14778952D02*
X6036095Y-14769428D01*
X6036095Y-14769428D02*
X6036095Y-14788476D01*
X6169429Y-14588476D02*
X6188476Y-14588476D01*
X6188476Y-14588476D02*
X6207524Y-14598000D01*
X6207524Y-14598000D02*
X6217048Y-14607524D01*
X6217048Y-14607524D02*
X6226571Y-14626571D01*
X6226571Y-14626571D02*
X6236095Y-14664667D01*
X6236095Y-14664667D02*
X6236095Y-14712286D01*
X6236095Y-14712286D02*
X6226571Y-14750381D01*
X6226571Y-14750381D02*
X6217048Y-14769428D01*
X6217048Y-14769428D02*
X6207524Y-14778952D01*
X6207524Y-14778952D02*
X6188476Y-14788476D01*
X6188476Y-14788476D02*
X6169429Y-14788476D01*
X6169429Y-14788476D02*
X6150381Y-14778952D01*
X6150381Y-14778952D02*
X6140857Y-14769428D01*
X6140857Y-14769428D02*
X6131333Y-14750381D01*
X6131333Y-14750381D02*
X6121810Y-14712286D01*
X6121810Y-14712286D02*
X6121810Y-14664667D01*
X6121810Y-14664667D02*
X6131333Y-14626571D01*
X6131333Y-14626571D02*
X6140857Y-14607524D01*
X6140857Y-14607524D02*
X6150381Y-14598000D01*
X6150381Y-14598000D02*
X6169429Y-14588476D01*
X6302762Y-14588476D02*
X6436095Y-14588476D01*
X6436095Y-14588476D02*
X6350381Y-14788476D01*
X6540857Y-14674190D02*
X6521810Y-14664667D01*
X6521810Y-14664667D02*
X6512286Y-14655143D01*
X6512286Y-14655143D02*
X6502762Y-14636095D01*
X6502762Y-14636095D02*
X6502762Y-14626571D01*
X6502762Y-14626571D02*
X6512286Y-14607524D01*
X6512286Y-14607524D02*
X6521810Y-14598000D01*
X6521810Y-14598000D02*
X6540857Y-14588476D01*
X6540857Y-14588476D02*
X6578952Y-14588476D01*
X6578952Y-14588476D02*
X6598000Y-14598000D01*
X6598000Y-14598000D02*
X6607524Y-14607524D01*
X6607524Y-14607524D02*
X6617048Y-14626571D01*
X6617048Y-14626571D02*
X6617048Y-14636095D01*
X6617048Y-14636095D02*
X6607524Y-14655143D01*
X6607524Y-14655143D02*
X6598000Y-14664667D01*
X6598000Y-14664667D02*
X6578952Y-14674190D01*
X6578952Y-14674190D02*
X6540857Y-14674190D01*
X6540857Y-14674190D02*
X6521810Y-14683714D01*
X6521810Y-14683714D02*
X6512286Y-14693238D01*
X6512286Y-14693238D02*
X6502762Y-14712286D01*
X6502762Y-14712286D02*
X6502762Y-14750381D01*
X6502762Y-14750381D02*
X6512286Y-14769428D01*
X6512286Y-14769428D02*
X6521810Y-14778952D01*
X6521810Y-14778952D02*
X6540857Y-14788476D01*
X6540857Y-14788476D02*
X6578952Y-14788476D01*
X6578952Y-14788476D02*
X6598000Y-14778952D01*
X6598000Y-14778952D02*
X6607524Y-14769428D01*
X6607524Y-14769428D02*
X6617048Y-14750381D01*
X6617048Y-14750381D02*
X6617048Y-14712286D01*
X6617048Y-14712286D02*
X6607524Y-14693238D01*
X6607524Y-14693238D02*
X6598000Y-14683714D01*
X6598000Y-14683714D02*
X6578952Y-14674190D01*
X6683714Y-14588476D02*
X6817048Y-14588476D01*
X6817048Y-14588476D02*
X6731333Y-14788476D01*
X6883714Y-14588476D02*
X6883714Y-14626571D01*
X6959905Y-14588476D02*
X6959905Y-14626571D01*
X7222762Y-14864667D02*
X7213238Y-14855143D01*
X7213238Y-14855143D02*
X7194191Y-14826571D01*
X7194191Y-14826571D02*
X7184667Y-14807524D01*
X7184667Y-14807524D02*
X7175143Y-14778952D01*
X7175143Y-14778952D02*
X7165619Y-14731333D01*
X7165619Y-14731333D02*
X7165619Y-14693238D01*
X7165619Y-14693238D02*
X7175143Y-14645619D01*
X7175143Y-14645619D02*
X7184667Y-14617048D01*
X7184667Y-14617048D02*
X7194191Y-14598000D01*
X7194191Y-14598000D02*
X7213238Y-14569428D01*
X7213238Y-14569428D02*
X7222762Y-14559905D01*
X7289429Y-14607524D02*
X7298952Y-14598000D01*
X7298952Y-14598000D02*
X7318000Y-14588476D01*
X7318000Y-14588476D02*
X7365619Y-14588476D01*
X7365619Y-14588476D02*
X7384667Y-14598000D01*
X7384667Y-14598000D02*
X7394191Y-14607524D01*
X7394191Y-14607524D02*
X7403714Y-14626571D01*
X7403714Y-14626571D02*
X7403714Y-14645619D01*
X7403714Y-14645619D02*
X7394191Y-14674190D01*
X7394191Y-14674190D02*
X7279905Y-14788476D01*
X7279905Y-14788476D02*
X7403714Y-14788476D01*
X7609429Y-14788476D02*
X7609429Y-14588476D01*
X7695143Y-14788476D02*
X7695143Y-14683714D01*
X7695143Y-14683714D02*
X7685619Y-14664667D01*
X7685619Y-14664667D02*
X7666572Y-14655143D01*
X7666572Y-14655143D02*
X7638000Y-14655143D01*
X7638000Y-14655143D02*
X7618952Y-14664667D01*
X7618952Y-14664667D02*
X7609429Y-14674190D01*
X7818952Y-14788476D02*
X7799905Y-14778952D01*
X7799905Y-14778952D02*
X7790381Y-14769428D01*
X7790381Y-14769428D02*
X7780857Y-14750381D01*
X7780857Y-14750381D02*
X7780857Y-14693238D01*
X7780857Y-14693238D02*
X7790381Y-14674190D01*
X7790381Y-14674190D02*
X7799905Y-14664667D01*
X7799905Y-14664667D02*
X7818952Y-14655143D01*
X7818952Y-14655143D02*
X7847524Y-14655143D01*
X7847524Y-14655143D02*
X7866572Y-14664667D01*
X7866572Y-14664667D02*
X7876095Y-14674190D01*
X7876095Y-14674190D02*
X7885619Y-14693238D01*
X7885619Y-14693238D02*
X7885619Y-14750381D01*
X7885619Y-14750381D02*
X7876095Y-14769428D01*
X7876095Y-14769428D02*
X7866572Y-14778952D01*
X7866572Y-14778952D02*
X7847524Y-14788476D01*
X7847524Y-14788476D02*
X7818952Y-14788476D01*
X7999905Y-14788476D02*
X7980857Y-14778952D01*
X7980857Y-14778952D02*
X7971333Y-14759905D01*
X7971333Y-14759905D02*
X7971333Y-14588476D01*
X8152286Y-14778952D02*
X8133238Y-14788476D01*
X8133238Y-14788476D02*
X8095143Y-14788476D01*
X8095143Y-14788476D02*
X8076095Y-14778952D01*
X8076095Y-14778952D02*
X8066572Y-14759905D01*
X8066572Y-14759905D02*
X8066572Y-14683714D01*
X8066572Y-14683714D02*
X8076095Y-14664667D01*
X8076095Y-14664667D02*
X8095143Y-14655143D01*
X8095143Y-14655143D02*
X8133238Y-14655143D01*
X8133238Y-14655143D02*
X8152286Y-14664667D01*
X8152286Y-14664667D02*
X8161810Y-14683714D01*
X8161810Y-14683714D02*
X8161810Y-14702762D01*
X8161810Y-14702762D02*
X8066572Y-14721809D01*
X8238000Y-14778952D02*
X8257048Y-14788476D01*
X8257048Y-14788476D02*
X8295143Y-14788476D01*
X8295143Y-14788476D02*
X8314191Y-14778952D01*
X8314191Y-14778952D02*
X8323714Y-14759905D01*
X8323714Y-14759905D02*
X8323714Y-14750381D01*
X8323714Y-14750381D02*
X8314191Y-14731333D01*
X8314191Y-14731333D02*
X8295143Y-14721809D01*
X8295143Y-14721809D02*
X8266572Y-14721809D01*
X8266572Y-14721809D02*
X8247524Y-14712286D01*
X8247524Y-14712286D02*
X8238000Y-14693238D01*
X8238000Y-14693238D02*
X8238000Y-14683714D01*
X8238000Y-14683714D02*
X8247524Y-14664667D01*
X8247524Y-14664667D02*
X8266572Y-14655143D01*
X8266572Y-14655143D02*
X8295143Y-14655143D01*
X8295143Y-14655143D02*
X8314191Y-14664667D01*
X8390381Y-14864667D02*
X8399905Y-14855143D01*
X8399905Y-14855143D02*
X8418953Y-14826571D01*
X8418953Y-14826571D02*
X8428476Y-14807524D01*
X8428476Y-14807524D02*
X8438000Y-14778952D01*
X8438000Y-14778952D02*
X8447524Y-14731333D01*
X8447524Y-14731333D02*
X8447524Y-14693238D01*
X8447524Y-14693238D02*
X8438000Y-14645619D01*
X8438000Y-14645619D02*
X8428476Y-14617048D01*
X8428476Y-14617048D02*
X8418953Y-14598000D01*
X8418953Y-14598000D02*
X8399905Y-14569428D01*
X8399905Y-14569428D02*
X8390381Y-14559905D01*
X8719905Y-14864667D02*
X8710381Y-14855143D01*
X8710381Y-14855143D02*
X8691334Y-14826571D01*
X8691334Y-14826571D02*
X8681810Y-14807524D01*
X8681810Y-14807524D02*
X8672286Y-14778952D01*
X8672286Y-14778952D02*
X8662762Y-14731333D01*
X8662762Y-14731333D02*
X8662762Y-14693238D01*
X8662762Y-14693238D02*
X8672286Y-14645619D01*
X8672286Y-14645619D02*
X8681810Y-14617048D01*
X8681810Y-14617048D02*
X8691334Y-14598000D01*
X8691334Y-14598000D02*
X8710381Y-14569428D01*
X8710381Y-14569428D02*
X8719905Y-14559905D01*
X8796095Y-14655143D02*
X8796095Y-14788476D01*
X8796095Y-14674190D02*
X8805619Y-14664667D01*
X8805619Y-14664667D02*
X8824667Y-14655143D01*
X8824667Y-14655143D02*
X8853238Y-14655143D01*
X8853238Y-14655143D02*
X8872286Y-14664667D01*
X8872286Y-14664667D02*
X8881810Y-14683714D01*
X8881810Y-14683714D02*
X8881810Y-14788476D01*
X9005619Y-14788476D02*
X8986572Y-14778952D01*
X8986572Y-14778952D02*
X8977048Y-14769428D01*
X8977048Y-14769428D02*
X8967524Y-14750381D01*
X8967524Y-14750381D02*
X8967524Y-14693238D01*
X8967524Y-14693238D02*
X8977048Y-14674190D01*
X8977048Y-14674190D02*
X8986572Y-14664667D01*
X8986572Y-14664667D02*
X9005619Y-14655143D01*
X9005619Y-14655143D02*
X9034191Y-14655143D01*
X9034191Y-14655143D02*
X9053238Y-14664667D01*
X9053238Y-14664667D02*
X9062762Y-14674190D01*
X9062762Y-14674190D02*
X9072286Y-14693238D01*
X9072286Y-14693238D02*
X9072286Y-14750381D01*
X9072286Y-14750381D02*
X9062762Y-14769428D01*
X9062762Y-14769428D02*
X9053238Y-14778952D01*
X9053238Y-14778952D02*
X9034191Y-14788476D01*
X9034191Y-14788476D02*
X9005619Y-14788476D01*
X9129429Y-14655143D02*
X9205619Y-14655143D01*
X9158000Y-14588476D02*
X9158000Y-14759905D01*
X9158000Y-14759905D02*
X9167524Y-14778952D01*
X9167524Y-14778952D02*
X9186572Y-14788476D01*
X9186572Y-14788476D02*
X9205619Y-14788476D01*
X9392286Y-14655143D02*
X9392286Y-14855143D01*
X9392286Y-14664667D02*
X9411334Y-14655143D01*
X9411334Y-14655143D02*
X9449429Y-14655143D01*
X9449429Y-14655143D02*
X9468476Y-14664667D01*
X9468476Y-14664667D02*
X9478000Y-14674190D01*
X9478000Y-14674190D02*
X9487524Y-14693238D01*
X9487524Y-14693238D02*
X9487524Y-14750381D01*
X9487524Y-14750381D02*
X9478000Y-14769428D01*
X9478000Y-14769428D02*
X9468476Y-14778952D01*
X9468476Y-14778952D02*
X9449429Y-14788476D01*
X9449429Y-14788476D02*
X9411334Y-14788476D01*
X9411334Y-14788476D02*
X9392286Y-14778952D01*
X9601810Y-14788476D02*
X9582762Y-14778952D01*
X9582762Y-14778952D02*
X9573238Y-14759905D01*
X9573238Y-14759905D02*
X9573238Y-14588476D01*
X9763715Y-14788476D02*
X9763715Y-14683714D01*
X9763715Y-14683714D02*
X9754191Y-14664667D01*
X9754191Y-14664667D02*
X9735143Y-14655143D01*
X9735143Y-14655143D02*
X9697048Y-14655143D01*
X9697048Y-14655143D02*
X9678000Y-14664667D01*
X9763715Y-14778952D02*
X9744667Y-14788476D01*
X9744667Y-14788476D02*
X9697048Y-14788476D01*
X9697048Y-14788476D02*
X9678000Y-14778952D01*
X9678000Y-14778952D02*
X9668476Y-14759905D01*
X9668476Y-14759905D02*
X9668476Y-14740857D01*
X9668476Y-14740857D02*
X9678000Y-14721809D01*
X9678000Y-14721809D02*
X9697048Y-14712286D01*
X9697048Y-14712286D02*
X9744667Y-14712286D01*
X9744667Y-14712286D02*
X9763715Y-14702762D01*
X9830381Y-14655143D02*
X9906572Y-14655143D01*
X9858953Y-14588476D02*
X9858953Y-14759905D01*
X9858953Y-14759905D02*
X9868476Y-14778952D01*
X9868476Y-14778952D02*
X9887524Y-14788476D01*
X9887524Y-14788476D02*
X9906572Y-14788476D01*
X10049429Y-14778952D02*
X10030381Y-14788476D01*
X10030381Y-14788476D02*
X9992286Y-14788476D01*
X9992286Y-14788476D02*
X9973238Y-14778952D01*
X9973238Y-14778952D02*
X9963715Y-14759905D01*
X9963715Y-14759905D02*
X9963715Y-14683714D01*
X9963715Y-14683714D02*
X9973238Y-14664667D01*
X9973238Y-14664667D02*
X9992286Y-14655143D01*
X9992286Y-14655143D02*
X10030381Y-14655143D01*
X10030381Y-14655143D02*
X10049429Y-14664667D01*
X10049429Y-14664667D02*
X10058953Y-14683714D01*
X10058953Y-14683714D02*
X10058953Y-14702762D01*
X10058953Y-14702762D02*
X9963715Y-14721809D01*
X10230381Y-14788476D02*
X10230381Y-14588476D01*
X10230381Y-14778952D02*
X10211334Y-14788476D01*
X10211334Y-14788476D02*
X10173238Y-14788476D01*
X10173238Y-14788476D02*
X10154191Y-14778952D01*
X10154191Y-14778952D02*
X10144667Y-14769428D01*
X10144667Y-14769428D02*
X10135143Y-14750381D01*
X10135143Y-14750381D02*
X10135143Y-14693238D01*
X10135143Y-14693238D02*
X10144667Y-14674190D01*
X10144667Y-14674190D02*
X10154191Y-14664667D01*
X10154191Y-14664667D02*
X10173238Y-14655143D01*
X10173238Y-14655143D02*
X10211334Y-14655143D01*
X10211334Y-14655143D02*
X10230381Y-14664667D01*
X10306572Y-14864667D02*
X10316096Y-14855143D01*
X10316096Y-14855143D02*
X10335143Y-14826571D01*
X10335143Y-14826571D02*
X10344667Y-14807524D01*
X10344667Y-14807524D02*
X10354191Y-14778952D01*
X10354191Y-14778952D02*
X10363715Y-14731333D01*
X10363715Y-14731333D02*
X10363715Y-14693238D01*
X10363715Y-14693238D02*
X10354191Y-14645619D01*
X10354191Y-14645619D02*
X10344667Y-14617048D01*
X10344667Y-14617048D02*
X10335143Y-14598000D01*
X10335143Y-14598000D02*
X10316096Y-14569428D01*
X10316096Y-14569428D02*
X10306572Y-14559905D01*
X3658000Y-14918000D02*
X3658000Y-15118000D01*
X3558000Y-15018000D02*
X3758000Y-15018000D01*
X3996095Y-14927524D02*
X4005619Y-14918000D01*
X4005619Y-14918000D02*
X4024667Y-14908476D01*
X4024667Y-14908476D02*
X4072286Y-14908476D01*
X4072286Y-14908476D02*
X4091333Y-14918000D01*
X4091333Y-14918000D02*
X4100857Y-14927524D01*
X4100857Y-14927524D02*
X4110381Y-14946571D01*
X4110381Y-14946571D02*
X4110381Y-14965619D01*
X4110381Y-14965619D02*
X4100857Y-14994190D01*
X4100857Y-14994190D02*
X3986571Y-15108476D01*
X3986571Y-15108476D02*
X4110381Y-15108476D01*
X4196095Y-15089428D02*
X4205619Y-15098952D01*
X4205619Y-15098952D02*
X4196095Y-15108476D01*
X4196095Y-15108476D02*
X4186571Y-15098952D01*
X4186571Y-15098952D02*
X4196095Y-15089428D01*
X4196095Y-15089428D02*
X4196095Y-15108476D01*
X4272286Y-14908476D02*
X4405619Y-14908476D01*
X4405619Y-14908476D02*
X4319905Y-15108476D01*
X4519905Y-14908476D02*
X4538952Y-14908476D01*
X4538952Y-14908476D02*
X4558000Y-14918000D01*
X4558000Y-14918000D02*
X4567524Y-14927524D01*
X4567524Y-14927524D02*
X4577048Y-14946571D01*
X4577048Y-14946571D02*
X4586571Y-14984667D01*
X4586571Y-14984667D02*
X4586571Y-15032286D01*
X4586571Y-15032286D02*
X4577048Y-15070381D01*
X4577048Y-15070381D02*
X4567524Y-15089428D01*
X4567524Y-15089428D02*
X4558000Y-15098952D01*
X4558000Y-15098952D02*
X4538952Y-15108476D01*
X4538952Y-15108476D02*
X4519905Y-15108476D01*
X4519905Y-15108476D02*
X4500857Y-15098952D01*
X4500857Y-15098952D02*
X4491333Y-15089428D01*
X4491333Y-15089428D02*
X4481810Y-15070381D01*
X4481810Y-15070381D02*
X4472286Y-15032286D01*
X4472286Y-15032286D02*
X4472286Y-14984667D01*
X4472286Y-14984667D02*
X4481810Y-14946571D01*
X4481810Y-14946571D02*
X4491333Y-14927524D01*
X4491333Y-14927524D02*
X4500857Y-14918000D01*
X4500857Y-14918000D02*
X4519905Y-14908476D01*
X4710381Y-14908476D02*
X4729429Y-14908476D01*
X4729429Y-14908476D02*
X4748476Y-14918000D01*
X4748476Y-14918000D02*
X4758000Y-14927524D01*
X4758000Y-14927524D02*
X4767524Y-14946571D01*
X4767524Y-14946571D02*
X4777048Y-14984667D01*
X4777048Y-14984667D02*
X4777048Y-15032286D01*
X4777048Y-15032286D02*
X4767524Y-15070381D01*
X4767524Y-15070381D02*
X4758000Y-15089428D01*
X4758000Y-15089428D02*
X4748476Y-15098952D01*
X4748476Y-15098952D02*
X4729429Y-15108476D01*
X4729429Y-15108476D02*
X4710381Y-15108476D01*
X4710381Y-15108476D02*
X4691333Y-15098952D01*
X4691333Y-15098952D02*
X4681810Y-15089428D01*
X4681810Y-15089428D02*
X4672286Y-15070381D01*
X4672286Y-15070381D02*
X4662762Y-15032286D01*
X4662762Y-15032286D02*
X4662762Y-14984667D01*
X4662762Y-14984667D02*
X4672286Y-14946571D01*
X4672286Y-14946571D02*
X4681810Y-14927524D01*
X4681810Y-14927524D02*
X4691333Y-14918000D01*
X4691333Y-14918000D02*
X4710381Y-14908476D01*
X4862762Y-15108476D02*
X4862762Y-14975143D01*
X4862762Y-14994190D02*
X4872286Y-14984667D01*
X4872286Y-14984667D02*
X4891333Y-14975143D01*
X4891333Y-14975143D02*
X4919905Y-14975143D01*
X4919905Y-14975143D02*
X4938952Y-14984667D01*
X4938952Y-14984667D02*
X4948476Y-15003714D01*
X4948476Y-15003714D02*
X4948476Y-15108476D01*
X4948476Y-15003714D02*
X4958000Y-14984667D01*
X4958000Y-14984667D02*
X4977048Y-14975143D01*
X4977048Y-14975143D02*
X5005619Y-14975143D01*
X5005619Y-14975143D02*
X5024667Y-14984667D01*
X5024667Y-14984667D02*
X5034191Y-15003714D01*
X5034191Y-15003714D02*
X5034191Y-15108476D01*
X5129429Y-15108476D02*
X5129429Y-14975143D01*
X5129429Y-14994190D02*
X5138952Y-14984667D01*
X5138952Y-14984667D02*
X5158000Y-14975143D01*
X5158000Y-14975143D02*
X5186572Y-14975143D01*
X5186572Y-14975143D02*
X5205619Y-14984667D01*
X5205619Y-14984667D02*
X5215143Y-15003714D01*
X5215143Y-15003714D02*
X5215143Y-15108476D01*
X5215143Y-15003714D02*
X5224667Y-14984667D01*
X5224667Y-14984667D02*
X5243714Y-14975143D01*
X5243714Y-14975143D02*
X5272286Y-14975143D01*
X5272286Y-14975143D02*
X5291333Y-14984667D01*
X5291333Y-14984667D02*
X5300857Y-15003714D01*
X5300857Y-15003714D02*
X5300857Y-15108476D01*
X5658952Y-14898952D02*
X5487524Y-15156095D01*
X5883714Y-14908476D02*
X5902762Y-14908476D01*
X5902762Y-14908476D02*
X5921810Y-14918000D01*
X5921810Y-14918000D02*
X5931333Y-14927524D01*
X5931333Y-14927524D02*
X5940857Y-14946571D01*
X5940857Y-14946571D02*
X5950381Y-14984667D01*
X5950381Y-14984667D02*
X5950381Y-15032286D01*
X5950381Y-15032286D02*
X5940857Y-15070381D01*
X5940857Y-15070381D02*
X5931333Y-15089428D01*
X5931333Y-15089428D02*
X5921810Y-15098952D01*
X5921810Y-15098952D02*
X5902762Y-15108476D01*
X5902762Y-15108476D02*
X5883714Y-15108476D01*
X5883714Y-15108476D02*
X5864667Y-15098952D01*
X5864667Y-15098952D02*
X5855143Y-15089428D01*
X5855143Y-15089428D02*
X5845619Y-15070381D01*
X5845619Y-15070381D02*
X5836095Y-15032286D01*
X5836095Y-15032286D02*
X5836095Y-14984667D01*
X5836095Y-14984667D02*
X5845619Y-14946571D01*
X5845619Y-14946571D02*
X5855143Y-14927524D01*
X5855143Y-14927524D02*
X5864667Y-14918000D01*
X5864667Y-14918000D02*
X5883714Y-14908476D01*
X6036095Y-15089428D02*
X6045619Y-15098952D01*
X6045619Y-15098952D02*
X6036095Y-15108476D01*
X6036095Y-15108476D02*
X6026571Y-15098952D01*
X6026571Y-15098952D02*
X6036095Y-15089428D01*
X6036095Y-15089428D02*
X6036095Y-15108476D01*
X6236095Y-15108476D02*
X6121810Y-15108476D01*
X6178952Y-15108476D02*
X6178952Y-14908476D01*
X6178952Y-14908476D02*
X6159905Y-14937048D01*
X6159905Y-14937048D02*
X6140857Y-14956095D01*
X6140857Y-14956095D02*
X6121810Y-14965619D01*
X6359905Y-14908476D02*
X6378952Y-14908476D01*
X6378952Y-14908476D02*
X6398000Y-14918000D01*
X6398000Y-14918000D02*
X6407524Y-14927524D01*
X6407524Y-14927524D02*
X6417048Y-14946571D01*
X6417048Y-14946571D02*
X6426571Y-14984667D01*
X6426571Y-14984667D02*
X6426571Y-15032286D01*
X6426571Y-15032286D02*
X6417048Y-15070381D01*
X6417048Y-15070381D02*
X6407524Y-15089428D01*
X6407524Y-15089428D02*
X6398000Y-15098952D01*
X6398000Y-15098952D02*
X6378952Y-15108476D01*
X6378952Y-15108476D02*
X6359905Y-15108476D01*
X6359905Y-15108476D02*
X6340857Y-15098952D01*
X6340857Y-15098952D02*
X6331333Y-15089428D01*
X6331333Y-15089428D02*
X6321810Y-15070381D01*
X6321810Y-15070381D02*
X6312286Y-15032286D01*
X6312286Y-15032286D02*
X6312286Y-14984667D01*
X6312286Y-14984667D02*
X6321810Y-14946571D01*
X6321810Y-14946571D02*
X6331333Y-14927524D01*
X6331333Y-14927524D02*
X6340857Y-14918000D01*
X6340857Y-14918000D02*
X6359905Y-14908476D01*
X6598000Y-14908476D02*
X6559905Y-14908476D01*
X6559905Y-14908476D02*
X6540857Y-14918000D01*
X6540857Y-14918000D02*
X6531333Y-14927524D01*
X6531333Y-14927524D02*
X6512286Y-14956095D01*
X6512286Y-14956095D02*
X6502762Y-14994190D01*
X6502762Y-14994190D02*
X6502762Y-15070381D01*
X6502762Y-15070381D02*
X6512286Y-15089428D01*
X6512286Y-15089428D02*
X6521810Y-15098952D01*
X6521810Y-15098952D02*
X6540857Y-15108476D01*
X6540857Y-15108476D02*
X6578952Y-15108476D01*
X6578952Y-15108476D02*
X6598000Y-15098952D01*
X6598000Y-15098952D02*
X6607524Y-15089428D01*
X6607524Y-15089428D02*
X6617048Y-15070381D01*
X6617048Y-15070381D02*
X6617048Y-15022762D01*
X6617048Y-15022762D02*
X6607524Y-15003714D01*
X6607524Y-15003714D02*
X6598000Y-14994190D01*
X6598000Y-14994190D02*
X6578952Y-14984667D01*
X6578952Y-14984667D02*
X6540857Y-14984667D01*
X6540857Y-14984667D02*
X6521810Y-14994190D01*
X6521810Y-14994190D02*
X6512286Y-15003714D01*
X6512286Y-15003714D02*
X6502762Y-15022762D01*
X6683714Y-14908476D02*
X6807524Y-14908476D01*
X6807524Y-14908476D02*
X6740857Y-14984667D01*
X6740857Y-14984667D02*
X6769429Y-14984667D01*
X6769429Y-14984667D02*
X6788476Y-14994190D01*
X6788476Y-14994190D02*
X6798000Y-15003714D01*
X6798000Y-15003714D02*
X6807524Y-15022762D01*
X6807524Y-15022762D02*
X6807524Y-15070381D01*
X6807524Y-15070381D02*
X6798000Y-15089428D01*
X6798000Y-15089428D02*
X6788476Y-15098952D01*
X6788476Y-15098952D02*
X6769429Y-15108476D01*
X6769429Y-15108476D02*
X6712286Y-15108476D01*
X6712286Y-15108476D02*
X6693238Y-15098952D01*
X6693238Y-15098952D02*
X6683714Y-15089428D01*
X6883714Y-14908476D02*
X6883714Y-14946571D01*
X6959905Y-14908476D02*
X6959905Y-14946571D01*
X7222762Y-15184667D02*
X7213238Y-15175143D01*
X7213238Y-15175143D02*
X7194191Y-15146571D01*
X7194191Y-15146571D02*
X7184667Y-15127524D01*
X7184667Y-15127524D02*
X7175143Y-15098952D01*
X7175143Y-15098952D02*
X7165619Y-15051333D01*
X7165619Y-15051333D02*
X7165619Y-15013238D01*
X7165619Y-15013238D02*
X7175143Y-14965619D01*
X7175143Y-14965619D02*
X7184667Y-14937048D01*
X7184667Y-14937048D02*
X7194191Y-14918000D01*
X7194191Y-14918000D02*
X7213238Y-14889428D01*
X7213238Y-14889428D02*
X7222762Y-14879905D01*
X7394191Y-14908476D02*
X7298952Y-14908476D01*
X7298952Y-14908476D02*
X7289429Y-15003714D01*
X7289429Y-15003714D02*
X7298952Y-14994190D01*
X7298952Y-14994190D02*
X7318000Y-14984667D01*
X7318000Y-14984667D02*
X7365619Y-14984667D01*
X7365619Y-14984667D02*
X7384667Y-14994190D01*
X7384667Y-14994190D02*
X7394191Y-15003714D01*
X7394191Y-15003714D02*
X7403714Y-15022762D01*
X7403714Y-15022762D02*
X7403714Y-15070381D01*
X7403714Y-15070381D02*
X7394191Y-15089428D01*
X7394191Y-15089428D02*
X7384667Y-15098952D01*
X7384667Y-15098952D02*
X7365619Y-15108476D01*
X7365619Y-15108476D02*
X7318000Y-15108476D01*
X7318000Y-15108476D02*
X7298952Y-15098952D01*
X7298952Y-15098952D02*
X7289429Y-15089428D01*
X7609429Y-15108476D02*
X7609429Y-14908476D01*
X7695143Y-15108476D02*
X7695143Y-15003714D01*
X7695143Y-15003714D02*
X7685619Y-14984667D01*
X7685619Y-14984667D02*
X7666572Y-14975143D01*
X7666572Y-14975143D02*
X7638000Y-14975143D01*
X7638000Y-14975143D02*
X7618952Y-14984667D01*
X7618952Y-14984667D02*
X7609429Y-14994190D01*
X7818952Y-15108476D02*
X7799905Y-15098952D01*
X7799905Y-15098952D02*
X7790381Y-15089428D01*
X7790381Y-15089428D02*
X7780857Y-15070381D01*
X7780857Y-15070381D02*
X7780857Y-15013238D01*
X7780857Y-15013238D02*
X7790381Y-14994190D01*
X7790381Y-14994190D02*
X7799905Y-14984667D01*
X7799905Y-14984667D02*
X7818952Y-14975143D01*
X7818952Y-14975143D02*
X7847524Y-14975143D01*
X7847524Y-14975143D02*
X7866572Y-14984667D01*
X7866572Y-14984667D02*
X7876095Y-14994190D01*
X7876095Y-14994190D02*
X7885619Y-15013238D01*
X7885619Y-15013238D02*
X7885619Y-15070381D01*
X7885619Y-15070381D02*
X7876095Y-15089428D01*
X7876095Y-15089428D02*
X7866572Y-15098952D01*
X7866572Y-15098952D02*
X7847524Y-15108476D01*
X7847524Y-15108476D02*
X7818952Y-15108476D01*
X7999905Y-15108476D02*
X7980857Y-15098952D01*
X7980857Y-15098952D02*
X7971333Y-15079905D01*
X7971333Y-15079905D02*
X7971333Y-14908476D01*
X8152286Y-15098952D02*
X8133238Y-15108476D01*
X8133238Y-15108476D02*
X8095143Y-15108476D01*
X8095143Y-15108476D02*
X8076095Y-15098952D01*
X8076095Y-15098952D02*
X8066572Y-15079905D01*
X8066572Y-15079905D02*
X8066572Y-15003714D01*
X8066572Y-15003714D02*
X8076095Y-14984667D01*
X8076095Y-14984667D02*
X8095143Y-14975143D01*
X8095143Y-14975143D02*
X8133238Y-14975143D01*
X8133238Y-14975143D02*
X8152286Y-14984667D01*
X8152286Y-14984667D02*
X8161810Y-15003714D01*
X8161810Y-15003714D02*
X8161810Y-15022762D01*
X8161810Y-15022762D02*
X8066572Y-15041809D01*
X8238000Y-15098952D02*
X8257048Y-15108476D01*
X8257048Y-15108476D02*
X8295143Y-15108476D01*
X8295143Y-15108476D02*
X8314191Y-15098952D01*
X8314191Y-15098952D02*
X8323714Y-15079905D01*
X8323714Y-15079905D02*
X8323714Y-15070381D01*
X8323714Y-15070381D02*
X8314191Y-15051333D01*
X8314191Y-15051333D02*
X8295143Y-15041809D01*
X8295143Y-15041809D02*
X8266572Y-15041809D01*
X8266572Y-15041809D02*
X8247524Y-15032286D01*
X8247524Y-15032286D02*
X8238000Y-15013238D01*
X8238000Y-15013238D02*
X8238000Y-15003714D01*
X8238000Y-15003714D02*
X8247524Y-14984667D01*
X8247524Y-14984667D02*
X8266572Y-14975143D01*
X8266572Y-14975143D02*
X8295143Y-14975143D01*
X8295143Y-14975143D02*
X8314191Y-14984667D01*
X8390381Y-15184667D02*
X8399905Y-15175143D01*
X8399905Y-15175143D02*
X8418953Y-15146571D01*
X8418953Y-15146571D02*
X8428476Y-15127524D01*
X8428476Y-15127524D02*
X8438000Y-15098952D01*
X8438000Y-15098952D02*
X8447524Y-15051333D01*
X8447524Y-15051333D02*
X8447524Y-15013238D01*
X8447524Y-15013238D02*
X8438000Y-14965619D01*
X8438000Y-14965619D02*
X8428476Y-14937048D01*
X8428476Y-14937048D02*
X8418953Y-14918000D01*
X8418953Y-14918000D02*
X8399905Y-14889428D01*
X8399905Y-14889428D02*
X8390381Y-14879905D01*
X8719905Y-15184667D02*
X8710381Y-15175143D01*
X8710381Y-15175143D02*
X8691334Y-15146571D01*
X8691334Y-15146571D02*
X8681810Y-15127524D01*
X8681810Y-15127524D02*
X8672286Y-15098952D01*
X8672286Y-15098952D02*
X8662762Y-15051333D01*
X8662762Y-15051333D02*
X8662762Y-15013238D01*
X8662762Y-15013238D02*
X8672286Y-14965619D01*
X8672286Y-14965619D02*
X8681810Y-14937048D01*
X8681810Y-14937048D02*
X8691334Y-14918000D01*
X8691334Y-14918000D02*
X8710381Y-14889428D01*
X8710381Y-14889428D02*
X8719905Y-14879905D01*
X8796095Y-14975143D02*
X8796095Y-15108476D01*
X8796095Y-14994190D02*
X8805619Y-14984667D01*
X8805619Y-14984667D02*
X8824667Y-14975143D01*
X8824667Y-14975143D02*
X8853238Y-14975143D01*
X8853238Y-14975143D02*
X8872286Y-14984667D01*
X8872286Y-14984667D02*
X8881810Y-15003714D01*
X8881810Y-15003714D02*
X8881810Y-15108476D01*
X9005619Y-15108476D02*
X8986572Y-15098952D01*
X8986572Y-15098952D02*
X8977048Y-15089428D01*
X8977048Y-15089428D02*
X8967524Y-15070381D01*
X8967524Y-15070381D02*
X8967524Y-15013238D01*
X8967524Y-15013238D02*
X8977048Y-14994190D01*
X8977048Y-14994190D02*
X8986572Y-14984667D01*
X8986572Y-14984667D02*
X9005619Y-14975143D01*
X9005619Y-14975143D02*
X9034191Y-14975143D01*
X9034191Y-14975143D02*
X9053238Y-14984667D01*
X9053238Y-14984667D02*
X9062762Y-14994190D01*
X9062762Y-14994190D02*
X9072286Y-15013238D01*
X9072286Y-15013238D02*
X9072286Y-15070381D01*
X9072286Y-15070381D02*
X9062762Y-15089428D01*
X9062762Y-15089428D02*
X9053238Y-15098952D01*
X9053238Y-15098952D02*
X9034191Y-15108476D01*
X9034191Y-15108476D02*
X9005619Y-15108476D01*
X9129429Y-14975143D02*
X9205619Y-14975143D01*
X9158000Y-14908476D02*
X9158000Y-15079905D01*
X9158000Y-15079905D02*
X9167524Y-15098952D01*
X9167524Y-15098952D02*
X9186572Y-15108476D01*
X9186572Y-15108476D02*
X9205619Y-15108476D01*
X9392286Y-14975143D02*
X9392286Y-15175143D01*
X9392286Y-14984667D02*
X9411334Y-14975143D01*
X9411334Y-14975143D02*
X9449429Y-14975143D01*
X9449429Y-14975143D02*
X9468476Y-14984667D01*
X9468476Y-14984667D02*
X9478000Y-14994190D01*
X9478000Y-14994190D02*
X9487524Y-15013238D01*
X9487524Y-15013238D02*
X9487524Y-15070381D01*
X9487524Y-15070381D02*
X9478000Y-15089428D01*
X9478000Y-15089428D02*
X9468476Y-15098952D01*
X9468476Y-15098952D02*
X9449429Y-15108476D01*
X9449429Y-15108476D02*
X9411334Y-15108476D01*
X9411334Y-15108476D02*
X9392286Y-15098952D01*
X9601810Y-15108476D02*
X9582762Y-15098952D01*
X9582762Y-15098952D02*
X9573238Y-15079905D01*
X9573238Y-15079905D02*
X9573238Y-14908476D01*
X9763715Y-15108476D02*
X9763715Y-15003714D01*
X9763715Y-15003714D02*
X9754191Y-14984667D01*
X9754191Y-14984667D02*
X9735143Y-14975143D01*
X9735143Y-14975143D02*
X9697048Y-14975143D01*
X9697048Y-14975143D02*
X9678000Y-14984667D01*
X9763715Y-15098952D02*
X9744667Y-15108476D01*
X9744667Y-15108476D02*
X9697048Y-15108476D01*
X9697048Y-15108476D02*
X9678000Y-15098952D01*
X9678000Y-15098952D02*
X9668476Y-15079905D01*
X9668476Y-15079905D02*
X9668476Y-15060857D01*
X9668476Y-15060857D02*
X9678000Y-15041809D01*
X9678000Y-15041809D02*
X9697048Y-15032286D01*
X9697048Y-15032286D02*
X9744667Y-15032286D01*
X9744667Y-15032286D02*
X9763715Y-15022762D01*
X9830381Y-14975143D02*
X9906572Y-14975143D01*
X9858953Y-14908476D02*
X9858953Y-15079905D01*
X9858953Y-15079905D02*
X9868476Y-15098952D01*
X9868476Y-15098952D02*
X9887524Y-15108476D01*
X9887524Y-15108476D02*
X9906572Y-15108476D01*
X10049429Y-15098952D02*
X10030381Y-15108476D01*
X10030381Y-15108476D02*
X9992286Y-15108476D01*
X9992286Y-15108476D02*
X9973238Y-15098952D01*
X9973238Y-15098952D02*
X9963715Y-15079905D01*
X9963715Y-15079905D02*
X9963715Y-15003714D01*
X9963715Y-15003714D02*
X9973238Y-14984667D01*
X9973238Y-14984667D02*
X9992286Y-14975143D01*
X9992286Y-14975143D02*
X10030381Y-14975143D01*
X10030381Y-14975143D02*
X10049429Y-14984667D01*
X10049429Y-14984667D02*
X10058953Y-15003714D01*
X10058953Y-15003714D02*
X10058953Y-15022762D01*
X10058953Y-15022762D02*
X9963715Y-15041809D01*
X10230381Y-15108476D02*
X10230381Y-14908476D01*
X10230381Y-15098952D02*
X10211334Y-15108476D01*
X10211334Y-15108476D02*
X10173238Y-15108476D01*
X10173238Y-15108476D02*
X10154191Y-15098952D01*
X10154191Y-15098952D02*
X10144667Y-15089428D01*
X10144667Y-15089428D02*
X10135143Y-15070381D01*
X10135143Y-15070381D02*
X10135143Y-15013238D01*
X10135143Y-15013238D02*
X10144667Y-14994190D01*
X10144667Y-14994190D02*
X10154191Y-14984667D01*
X10154191Y-14984667D02*
X10173238Y-14975143D01*
X10173238Y-14975143D02*
X10211334Y-14975143D01*
X10211334Y-14975143D02*
X10230381Y-14984667D01*
X10306572Y-15184667D02*
X10316096Y-15175143D01*
X10316096Y-15175143D02*
X10335143Y-15146571D01*
X10335143Y-15146571D02*
X10344667Y-15127524D01*
X10344667Y-15127524D02*
X10354191Y-15098952D01*
X10354191Y-15098952D02*
X10363715Y-15051333D01*
X10363715Y-15051333D02*
X10363715Y-15013238D01*
X10363715Y-15013238D02*
X10354191Y-14965619D01*
X10354191Y-14965619D02*
X10344667Y-14937048D01*
X10344667Y-14937048D02*
X10335143Y-14918000D01*
X10335143Y-14918000D02*
X10316096Y-14889428D01*
X10316096Y-14889428D02*
X10306572Y-14879905D01*
M02*
