G04 #@! TF.GenerationSoftware,KiCad,Pcbnew,(6.99.0-1115-g98f4b1d16c)*
G04 #@! TF.CreationDate,2022-03-31T00:19:22+02:00*
G04 #@! TF.ProjectId,rpi_pico_kit,7270695f-7069-4636-9f5f-6b69742e6b69,1*
G04 #@! TF.SameCoordinates,Original*
G04 #@! TF.FileFunction,Soldermask,Bot*
G04 #@! TF.FilePolarity,Negative*
%FSLAX46Y46*%
G04 Gerber Fmt 4.6, Leading zero omitted, Abs format (unit mm)*
G04 Created by KiCad (PCBNEW (6.99.0-1115-g98f4b1d16c)) date 2022-03-31 00:19:22*
%MOMM*%
%LPD*%
G01*
G04 APERTURE LIST*
G04 Aperture macros list*
%AMRoundRect*
0 Rectangle with rounded corners*
0 $1 Rounding radius*
0 $2 $3 $4 $5 $6 $7 $8 $9 X,Y pos of 4 corners*
0 Add a 4 corners polygon primitive as box body*
4,1,4,$2,$3,$4,$5,$6,$7,$8,$9,$2,$3,0*
0 Add four circle primitives for the rounded corners*
1,1,$1+$1,$2,$3*
1,1,$1+$1,$4,$5*
1,1,$1+$1,$6,$7*
1,1,$1+$1,$8,$9*
0 Add four rect primitives between the rounded corners*
20,1,$1+$1,$2,$3,$4,$5,0*
20,1,$1+$1,$4,$5,$6,$7,0*
20,1,$1+$1,$6,$7,$8,$9,0*
20,1,$1+$1,$8,$9,$2,$3,0*%
G04 Aperture macros list end*
%ADD10RoundRect,0.050000X-0.850000X-0.850000X0.850000X-0.850000X0.850000X0.850000X-0.850000X0.850000X0*%
%ADD11O,1.800000X1.800000*%
%ADD12C,2.800000*%
%ADD13RoundRect,0.050000X1.000000X1.000000X-1.000000X1.000000X-1.000000X-1.000000X1.000000X-1.000000X0*%
%ADD14C,2.100000*%
%ADD15RoundRect,0.050000X1.600000X1.000000X-1.600000X1.000000X-1.600000X-1.000000X1.600000X-1.000000X0*%
%ADD16C,1.800000*%
%ADD17C,4.100000*%
%ADD18RoundRect,0.050000X-0.800000X0.800000X-0.800000X-0.800000X0.800000X-0.800000X0.800000X0.800000X0*%
%ADD19C,1.700000*%
%ADD20RoundRect,0.050000X0.850000X0.850000X-0.850000X0.850000X-0.850000X-0.850000X0.850000X-0.850000X0*%
%ADD21RoundRect,0.050000X0.850000X-0.850000X0.850000X0.850000X-0.850000X0.850000X-0.850000X-0.850000X0*%
%ADD22RoundRect,0.050000X2.300000X1.000000X-2.300000X1.000000X-2.300000X-1.000000X2.300000X-1.000000X0*%
%ADD23O,4.300000X2.100000*%
%ADD24O,2.100000X4.300000*%
%ADD25O,2.100000X1.700000*%
%ADD26C,3.500000*%
%ADD27RoundRect,0.050000X0.800000X0.800000X-0.800000X0.800000X-0.800000X-0.800000X0.800000X-0.800000X0*%
%ADD28C,1.900000*%
%ADD29C,2.095000*%
G04 APERTURE END LIST*
D10*
X57912000Y-97484250D03*
D11*
X57911999Y-100024249D03*
X58419999Y-40639999D03*
X58419999Y-43179999D03*
D10*
X58420000Y-45720000D03*
D11*
X58419999Y-48259999D03*
X58419999Y-50799999D03*
X58419999Y-53339999D03*
X58419999Y-55879999D03*
D10*
X58420000Y-58420000D03*
D11*
X58419999Y-60959999D03*
X58419999Y-63499999D03*
X58419999Y-66039999D03*
X58419999Y-68579999D03*
D10*
X58420000Y-71120000D03*
D11*
X58419999Y-73659999D03*
X58419999Y-76199999D03*
X58419999Y-78739999D03*
X58419999Y-81279999D03*
D10*
X58420000Y-83820000D03*
D11*
X58419999Y-86359999D03*
X58419999Y-88899999D03*
X76199999Y-88899999D03*
X76199999Y-86359999D03*
D10*
X76200000Y-83820000D03*
D11*
X76199999Y-81279999D03*
X76199999Y-78739999D03*
X76199999Y-76199999D03*
X76199999Y-73659999D03*
D10*
X76200000Y-71120000D03*
D11*
X76199999Y-68579999D03*
X76199999Y-66039999D03*
X76199999Y-63499999D03*
X76199999Y-60959999D03*
D10*
X76200000Y-58420000D03*
D11*
X76199999Y-55879999D03*
X76199999Y-53339999D03*
X76199999Y-50799999D03*
X76199999Y-48259999D03*
D10*
X76200000Y-45720000D03*
D11*
X76199999Y-43179999D03*
X76199999Y-40639999D03*
X64769999Y-88669999D03*
D10*
X67310000Y-88670000D03*
D11*
X69849999Y-88669999D03*
D12*
X133985000Y-133985000D03*
D13*
X107580000Y-102195000D03*
D14*
X107580000Y-97195000D03*
X107580000Y-99695000D03*
D15*
X100080000Y-105295000D03*
X100080000Y-94095000D03*
D14*
X93080000Y-97195000D03*
X93080000Y-102195000D03*
D10*
X50292000Y-97484250D03*
D11*
X50291999Y-100024249D03*
D16*
X41950000Y-125349000D03*
X48950000Y-125349000D03*
D17*
X43185000Y-79840000D03*
X43185000Y-104840000D03*
D18*
X45235000Y-96655000D03*
D19*
X45235000Y-94365000D03*
X45235000Y-92075000D03*
X45235000Y-89785000D03*
X45235000Y-87495000D03*
X43255000Y-97800000D03*
X43255000Y-95510000D03*
X43255000Y-93220000D03*
X43255000Y-90930000D03*
X43255000Y-88640000D03*
X41275000Y-96655000D03*
X41275000Y-94365000D03*
X41275000Y-92075000D03*
X41275000Y-89785000D03*
X41275000Y-87495000D03*
D20*
X122936000Y-133096000D03*
D11*
X122935999Y-130555999D03*
X122935999Y-128015999D03*
X122935999Y-125475999D03*
X122935999Y-122935999D03*
X122935999Y-120395999D03*
X122935999Y-117855999D03*
X122935999Y-115315999D03*
D12*
X87630000Y-87630000D03*
X41275000Y-133985000D03*
D21*
X117856000Y-98044000D03*
D11*
X120395999Y-98043999D03*
X122935999Y-98043999D03*
D20*
X120396000Y-133096000D03*
D11*
X120395999Y-130555999D03*
X120395999Y-128015999D03*
X120395999Y-125475999D03*
X120395999Y-122935999D03*
X120395999Y-120395999D03*
X120395999Y-117855999D03*
X120395999Y-115315999D03*
D10*
X52832000Y-97484250D03*
D11*
X52831999Y-100024249D03*
D22*
X90820000Y-48260000D03*
D23*
X90819999Y-41959999D03*
D24*
X86019999Y-45359999D03*
D21*
X75145500Y-126482000D03*
D11*
X77685499Y-126481999D03*
X80225499Y-126481999D03*
X82765499Y-126481999D03*
D10*
X70612000Y-97484250D03*
D11*
X70611999Y-100024249D03*
D21*
X117871000Y-88900950D03*
D11*
X120410999Y-88900949D03*
X122950999Y-88900949D03*
D16*
X41950000Y-114046000D03*
X48950000Y-114046000D03*
D10*
X62992000Y-97484250D03*
D11*
X62991999Y-100024249D03*
D21*
X117871000Y-92710950D03*
D11*
X120410999Y-92710949D03*
X122950999Y-92710949D03*
D20*
X117856000Y-133096000D03*
D11*
X117855999Y-130555999D03*
X117855999Y-128015999D03*
X117855999Y-125475999D03*
X117855999Y-122935999D03*
X117855999Y-120395999D03*
X117855999Y-117855999D03*
X117855999Y-115315999D03*
D10*
X127508000Y-41656000D03*
D11*
X127507999Y-44195999D03*
D25*
X88564999Y-126364999D03*
X88564999Y-123824999D03*
X88564999Y-121284999D03*
X88564999Y-118744999D03*
D26*
X89065000Y-134305000D03*
X112865000Y-134305000D03*
X89065000Y-110805000D03*
X112865000Y-110805000D03*
D10*
X73152000Y-97484250D03*
D11*
X73151999Y-100024249D03*
D13*
X123063000Y-45212000D03*
D14*
X115463000Y-45212000D03*
D10*
X65532000Y-97484250D03*
D11*
X65531999Y-100024249D03*
D10*
X60452000Y-97484250D03*
D11*
X60451999Y-100024249D03*
D27*
X103144000Y-49713500D03*
D19*
X105644000Y-49713500D03*
X105644000Y-47713500D03*
X103144000Y-47713500D03*
D17*
X98394000Y-44853500D03*
X110394000Y-44853500D03*
X82870000Y-104095000D03*
X82870000Y-95295000D03*
D28*
X89870000Y-97195000D03*
X89870000Y-99695000D03*
X89870000Y-102195000D03*
D12*
X41275000Y-41275000D03*
D10*
X55372000Y-97484250D03*
D11*
X55371999Y-100024249D03*
D12*
X133985000Y-41275000D03*
D29*
X40794500Y-59409200D03*
X45694500Y-60009200D03*
X45694500Y-74509200D03*
X40794500Y-75109200D03*
D21*
X75145500Y-134112000D03*
D11*
X77685499Y-134111999D03*
X80225499Y-134111999D03*
X82765499Y-134111999D03*
D10*
X68072000Y-97484250D03*
D11*
X68071999Y-100024249D03*
M02*
